<svg width="153" height="39" viewBox="0 0 153 39" fill="none" xmlns="http://www.w3.org/2000/svg">
    <rect x="0.351562" y="0.0712891" width="152.648" height="38.3753" fill="#0F62FE"/>
    <path d="M42.568 25.192C41.6827 25.192 40.8773 24.9893 40.152 24.584C39.4267 24.1787 38.8453 23.576 38.408 22.776C37.9707 21.976 37.752 20.9947 37.752 19.832C37.752 18.968 37.88 18.2 38.136 17.528C38.392 16.856 38.744 16.2853 39.192 15.816C39.6507 15.336 40.1733 14.9787 40.76 14.744C41.3573 14.4987 41.9813 14.376 42.632 14.376C43.304 14.376 43.9013 14.5093 44.424 14.776C44.9573 15.0427 45.3947 15.3573 45.736 15.72L44.568 17.128C44.3013 16.872 44.0187 16.664 43.72 16.504C43.4213 16.344 43.0747 16.264 42.68 16.264C42.1787 16.264 41.7253 16.408 41.32 16.696C40.9147 16.9733 40.5947 17.3733 40.36 17.896C40.1253 18.4187 40.008 19.0427 40.008 19.768C40.008 20.504 40.1147 21.1387 40.328 21.672C40.5413 22.1947 40.8453 22.5947 41.24 22.872C41.6453 23.1493 42.1147 23.288 42.648 23.288C43.0853 23.288 43.4747 23.192 43.816 23C44.168 22.808 44.4773 22.568 44.744 22.28L45.912 23.656C45.4853 24.1573 44.9893 24.5413 44.424 24.808C43.8587 25.064 43.24 25.192 42.568 25.192ZM51.1087 25.192C50.4367 25.192 49.8074 25.032 49.2207 24.712C48.6447 24.3813 48.1754 23.9067 47.8127 23.288C47.45 22.6693 47.2687 21.9227 47.2687 21.048C47.2687 20.1733 47.45 19.4267 47.8127 18.808C48.1754 18.1893 48.6447 17.7147 49.2207 17.384C49.8074 17.0533 50.4367 16.888 51.1087 16.888C51.77 16.888 52.3887 17.0533 52.9647 17.384C53.5514 17.7147 54.026 18.1893 54.3887 18.808C54.7514 19.4267 54.9327 20.1733 54.9327 21.048C54.9327 21.9227 54.7514 22.6693 54.3887 23.288C54.026 23.9067 53.5514 24.3813 52.9647 24.712C52.3887 25.032 51.77 25.192 51.1087 25.192ZM51.1087 23.416C51.45 23.416 51.738 23.32 51.9727 23.128C52.2074 22.936 52.3834 22.664 52.5007 22.312C52.618 21.9493 52.6767 21.528 52.6767 21.048C52.6767 20.568 52.618 20.152 52.5007 19.8C52.3834 19.4373 52.2074 19.16 51.9727 18.968C51.738 18.7653 51.45 18.664 51.1087 18.664C50.7567 18.664 50.4634 18.7653 50.2287 18.968C49.994 19.16 49.818 19.4373 49.7007 19.8C49.5834 20.152 49.5247 20.568 49.5247 21.048C49.5247 21.528 49.5834 21.9493 49.7007 22.312C49.818 22.664 49.994 22.936 50.2287 23.128C50.4634 23.32 50.7567 23.416 51.1087 23.416ZM56.9879 25V17.08H58.7799L58.9399 18.104H59.0039C59.3453 17.7733 59.7186 17.4907 60.1239 17.256C60.5399 17.0107 61.0199 16.888 61.5639 16.888C62.4173 16.888 63.0359 17.1707 63.4199 17.736C63.8146 18.3013 64.0119 19.08 64.0119 20.072V25H61.8199V20.36C61.8199 19.7627 61.7346 19.3467 61.5639 19.112C61.3933 18.8773 61.1266 18.76 60.7639 18.76C60.4439 18.76 60.1719 18.8347 59.9479 18.984C59.7239 19.1227 59.4679 19.3307 59.1799 19.608V25H56.9879ZM69.4531 25.192C68.4931 25.192 67.8051 24.9147 67.3891 24.36C66.9838 23.8053 66.7811 23.08 66.7811 22.184V18.808H65.6931V17.176L66.9091 17.08L67.1651 14.968H68.9731V17.08H70.9091V18.808H68.9731V22.168C68.9731 22.616 69.0638 22.9467 69.2451 23.16C69.4371 23.3627 69.6985 23.464 70.0291 23.464C70.1678 23.464 70.3065 23.448 70.4451 23.416C70.5838 23.384 70.7065 23.3467 70.8131 23.304L71.1651 24.904C70.9518 24.968 70.7011 25.032 70.4131 25.096C70.1251 25.16 69.8051 25.192 69.4531 25.192ZM74.5281 25.192C74.0588 25.192 73.6481 25.0907 73.2961 24.888C72.9441 24.6747 72.6668 24.392 72.4641 24.04C72.2721 23.6773 72.1761 23.272 72.1761 22.824C72.1761 21.992 72.5334 21.3413 73.2481 20.872C73.9628 20.4027 75.1148 20.0827 76.7041 19.912C76.6934 19.6667 76.6401 19.448 76.5441 19.256C76.4588 19.064 76.3201 18.9147 76.1281 18.808C75.9468 18.7013 75.7014 18.648 75.3921 18.648C75.0401 18.648 74.6881 18.7173 74.3361 18.856C73.9948 18.984 73.6374 19.16 73.2641 19.384L72.4641 17.928C72.7841 17.736 73.1254 17.56 73.4881 17.4C73.8508 17.24 74.2241 17.1173 74.6081 17.032C74.9921 16.936 75.3921 16.888 75.8081 16.888C76.4801 16.888 77.0454 17.0213 77.5041 17.288C77.9628 17.5547 78.3094 17.9493 78.5441 18.472C78.7788 18.984 78.8961 19.6347 78.8961 20.424V25H77.1041L76.9441 24.168H76.8801C76.5494 24.4667 76.1868 24.712 75.7921 24.904C75.4081 25.096 74.9868 25.192 74.5281 25.192ZM75.2641 23.496C75.5521 23.496 75.8028 23.432 76.0161 23.304C76.2401 23.1653 76.4694 22.984 76.7041 22.76V21.256C76.0961 21.3307 75.6161 21.4373 75.2641 21.576C74.9121 21.704 74.6614 21.864 74.5121 22.056C74.3628 22.2373 74.2881 22.4347 74.2881 22.648C74.2881 22.936 74.3788 23.1493 74.5601 23.288C74.7414 23.4267 74.9761 23.496 75.2641 23.496ZM84.7542 25.192C84.0289 25.192 83.3729 25.032 82.7862 24.712C82.1995 24.3813 81.7302 23.9067 81.3782 23.288C81.0369 22.6693 80.8662 21.9227 80.8662 21.048C80.8662 20.1733 81.0582 19.4267 81.4422 18.808C81.8262 18.1893 82.3275 17.7147 82.9462 17.384C83.5649 17.0533 84.2315 16.888 84.9462 16.888C85.4369 16.888 85.8742 16.9733 86.2582 17.144C86.6422 17.304 86.9782 17.5067 87.2662 17.752L86.2102 19.176C86.0182 18.9947 85.8315 18.8667 85.6502 18.792C85.4795 18.7067 85.2875 18.664 85.0742 18.664C84.6795 18.664 84.3329 18.7653 84.0342 18.968C83.7462 19.16 83.5222 19.4373 83.3622 19.8C83.2022 20.152 83.1222 20.568 83.1222 21.048C83.1222 21.528 83.2022 21.9493 83.3622 22.312C83.5222 22.664 83.7409 22.936 84.0182 23.128C84.3062 23.32 84.6315 23.416 84.9942 23.416C85.2715 23.416 85.5382 23.3573 85.7942 23.24C86.0502 23.1227 86.2795 22.9787 86.4822 22.808L87.3622 24.248C86.9782 24.5787 86.5569 24.8187 86.0982 24.968C85.6395 25.1173 85.1915 25.192 84.7542 25.192ZM92.0145 25.192C91.0545 25.192 90.3665 24.9147 89.9505 24.36C89.5452 23.8053 89.3425 23.08 89.3425 22.184V18.808H88.2545V17.176L89.4705 17.08L89.7265 14.968H91.5345V17.08H93.4705V18.808H91.5345V22.168C91.5345 22.616 91.6252 22.9467 91.8065 23.16C91.9985 23.3627 92.2599 23.464 92.5905 23.464C92.7292 23.464 92.8679 23.448 93.0065 23.416C93.1452 23.384 93.2679 23.3467 93.3745 23.304L93.7265 24.904C93.5132 24.968 93.2625 25.032 92.9745 25.096C92.6865 25.16 92.3665 25.192 92.0145 25.192ZM101.416 25.192C100.574 25.192 99.9549 24.9093 99.5602 24.344C99.1655 23.7787 98.9682 23 98.9682 22.008V17.08H101.16V21.736C101.16 22.3333 101.246 22.7493 101.416 22.984C101.598 23.208 101.87 23.32 102.232 23.32C102.542 23.32 102.808 23.2507 103.032 23.112C103.256 22.9627 103.491 22.7173 103.736 22.376V17.08H105.928V25H104.136L103.976 23.88H103.928C103.587 24.2853 103.219 24.6053 102.824 24.84C102.43 25.0747 101.96 25.192 101.416 25.192ZM110.795 25.192C110.272 25.192 109.733 25.0907 109.179 24.888C108.635 24.6747 108.165 24.408 107.771 24.088L108.763 22.712C109.125 22.9787 109.477 23.1867 109.819 23.336C110.16 23.4853 110.507 23.56 110.859 23.56C111.232 23.56 111.504 23.4907 111.675 23.352C111.845 23.2133 111.931 23.0267 111.931 22.792C111.931 22.6107 111.851 22.456 111.691 22.328C111.541 22.1893 111.339 22.072 111.083 21.976C110.837 21.8693 110.576 21.7627 110.299 21.656C109.968 21.528 109.637 21.368 109.307 21.176C108.987 20.984 108.715 20.7387 108.491 20.44C108.277 20.1413 108.171 19.7733 108.171 19.336C108.171 18.6107 108.443 18.024 108.987 17.576C109.531 17.1173 110.251 16.888 111.147 16.888C111.744 16.888 112.267 16.9893 112.715 17.192C113.163 17.3947 113.552 17.624 113.883 17.88L112.907 19.208C112.619 18.9947 112.336 18.8293 112.059 18.712C111.781 18.584 111.499 18.52 111.211 18.52C110.88 18.52 110.629 18.5893 110.459 18.728C110.299 18.856 110.219 19.0267 110.219 19.24C110.219 19.4107 110.293 19.5547 110.443 19.672C110.592 19.7893 110.789 19.896 111.035 19.992C111.28 20.088 111.541 20.184 111.819 20.28C112.16 20.408 112.496 20.568 112.827 20.76C113.157 20.9413 113.435 21.1867 113.659 21.496C113.883 21.7947 113.995 22.184 113.995 22.664C113.995 23.1333 113.872 23.56 113.627 23.944C113.381 24.328 113.019 24.632 112.539 24.856C112.069 25.08 111.488 25.192 110.795 25.192Z" fill="white"/>
    </svg>
    