<svg width="157" height="21" viewBox="0 0 157 21" fill="none" xmlns="http://www.w3.org/2000/svg">
    <path d="M2.104 20.27C1.564 20.27 1.132 20.126 0.808 19.838C0.484 19.55 0.322 19.154 0.322 18.65V2.45C0.322 1.946 0.484 1.55 0.808 1.262C1.132 0.973999 1.564 0.829999 2.104 0.829999C2.626 0.829999 3.058 0.973999 3.4 1.262C3.742 1.55 3.913 1.946 3.913 2.45V18.65C3.913 19.154 3.742 19.55 3.4 19.838C3.058 20.126 2.626 20.27 2.104 20.27ZM11.5456 20.27C11.0056 20.27 10.5736 20.126 10.2496 19.838C9.92556 19.55 9.76356 19.154 9.76356 18.65V8.471C9.76356 6.077 10.5106 4.205 12.0046 2.855C13.4986 1.505 15.5686 0.829999 18.2146 0.829999C20.8606 0.829999 22.9306 1.505 24.4246 2.855C25.9186 4.205 26.6656 6.077 26.6656 8.471V18.65C26.6656 19.154 26.5036 19.55 26.1796 19.838C25.8556 20.126 25.4236 20.27 24.8836 20.27C24.3436 20.27 23.9026 20.126 23.5606 19.838C23.2366 19.532 23.0746 19.136 23.0746 18.65V8.39C23.0746 6.86 22.6606 5.69 21.8326 4.88C21.0046 4.07 19.7986 3.665 18.2146 3.665C16.6306 3.665 15.4246 4.07 14.5966 4.88C13.7686 5.69 13.3546 6.86 13.3546 8.39V18.65C13.3546 19.136 13.1836 19.532 12.8416 19.838C12.5176 20.126 12.0856 20.27 11.5456 20.27ZM33.3491 20.27C32.8091 20.27 32.3771 20.126 32.0531 19.838C31.7291 19.55 31.5671 19.154 31.5671 18.65V8.471C31.5671 6.077 32.3141 4.205 33.8081 2.855C35.3021 1.505 37.3721 0.829999 40.0181 0.829999C42.6641 0.829999 44.7341 1.505 46.2281 2.855C47.7221 4.205 48.4691 6.077 48.4691 8.471V18.65C48.4691 19.154 48.3071 19.55 47.9831 19.838C47.6591 20.126 47.2271 20.27 46.6871 20.27C46.1471 20.27 45.7061 20.126 45.3641 19.838C45.0401 19.532 44.8781 19.136 44.8781 18.65V8.39C44.8781 6.86 44.4641 5.69 43.6361 4.88C42.8081 4.07 41.6021 3.665 40.0181 3.665C38.4341 3.665 37.2281 4.07 36.4001 4.88C35.5721 5.69 35.1581 6.86 35.1581 8.39V18.65C35.1581 19.136 34.9871 19.532 34.6451 19.838C34.3211 20.126 33.8891 20.27 33.3491 20.27ZM62.6481 20.27C60.5421 20.27 58.7241 19.865 57.1941 19.055C55.6821 18.227 54.5301 17.084 53.7381 15.626C52.9461 14.15 52.5501 12.458 52.5501 10.55C52.5501 8.642 52.9461 6.959 53.7381 5.501C54.5301 4.025 55.6821 2.882 57.1941 2.072C58.7241 1.244 60.5421 0.829999 62.6481 0.829999C64.7541 0.829999 66.5631 1.244 68.0751 2.072C69.6051 2.882 70.7661 4.025 71.5581 5.501C72.3501 6.959 72.7461 8.642 72.7461 10.55C72.7461 12.458 72.3501 14.15 71.5581 15.626C70.7661 17.084 69.6051 18.227 68.0751 19.055C66.5631 19.865 64.7541 20.27 62.6481 20.27ZM62.6481 17.435C64.7001 17.435 66.2931 16.823 67.4271 15.599C68.5611 14.357 69.1281 12.674 69.1281 10.55C69.1281 8.408 68.5341 6.725 67.3461 5.501C66.1761 4.277 64.5201 3.665 62.3781 3.665C60.4161 3.665 58.8861 4.295 57.7881 5.555C56.7081 6.797 56.1681 8.462 56.1681 10.55C56.1681 12.674 56.7351 14.357 57.8691 15.599C59.0031 16.823 60.5961 17.435 62.6481 17.435ZM78.7524 20.27C78.2124 20.27 77.7804 20.126 77.4564 19.838C77.1324 19.55 76.9704 19.154 76.9704 18.65V7.526C76.9704 5.438 77.5644 3.8 78.7524 2.612C79.9404 1.424 81.5784 0.829999 83.6664 0.829999C84.6744 0.829999 85.6194 1.082 86.5014 1.586C87.4014 2.072 88.1754 2.774 88.8234 3.692C89.4534 2.756 90.2094 2.045 91.0914 1.559C91.9914 1.073 92.9634 0.829999 94.0074 0.829999C96.0954 0.829999 97.7334 1.424 98.9214 2.612C100.109 3.8 100.703 5.438 100.703 7.526V18.65C100.703 19.136 100.532 19.532 100.19 19.838C99.8664 20.126 99.4344 20.27 98.8944 20.27C98.3544 20.27 97.9224 20.126 97.5984 19.838C97.2744 19.55 97.1124 19.154 97.1124 18.65V7.526C97.1124 6.158 96.8604 5.177 96.3564 4.583C95.8524 3.971 95.0244 3.665 93.8724 3.665C92.8284 3.665 92.0184 3.998 91.4424 4.664C90.8844 5.33 90.6054 6.284 90.6054 7.526V18.65C90.6054 19.154 90.4434 19.55 90.1194 19.838C89.7954 20.126 89.3634 20.27 88.8234 20.27C88.2834 20.27 87.8514 20.126 87.5274 19.838C87.2214 19.55 87.0684 19.154 87.0684 18.65V7.526C87.0684 6.32 86.7804 5.375 86.2044 4.691C85.6284 4.007 84.8274 3.665 83.8014 3.665C82.6494 3.665 81.8214 3.971 81.3174 4.583C80.8134 5.177 80.5614 6.158 80.5614 7.526V18.65C80.5614 19.136 80.3904 19.532 80.0484 19.838C79.7244 20.126 79.2924 20.27 78.7524 20.27ZM108.485 20.27C107.945 20.27 107.513 20.126 107.189 19.838C106.865 19.55 106.703 19.154 106.703 18.65V2.45C106.703 1.946 106.865 1.55 107.189 1.262C107.513 0.973999 107.945 0.829999 108.485 0.829999C109.007 0.829999 109.439 0.973999 109.781 1.262C110.123 1.55 110.294 1.946 110.294 2.45V18.65C110.294 19.154 110.123 19.55 109.781 19.838C109.439 20.126 109.007 20.27 108.485 20.27ZM117.927 20.27C117.387 20.27 116.955 20.126 116.631 19.838C116.307 19.55 116.145 19.154 116.145 18.65V8.471C116.145 6.077 116.892 4.205 118.386 2.855C119.88 1.505 121.95 0.829999 124.596 0.829999C127.242 0.829999 129.312 1.505 130.806 2.855C132.3 4.205 133.047 6.077 133.047 8.471V18.65C133.047 19.154 132.885 19.55 132.561 19.838C132.237 20.126 131.805 20.27 131.265 20.27C130.725 20.27 130.284 20.126 129.942 19.838C129.618 19.532 129.456 19.136 129.456 18.65V8.39C129.456 6.86 129.042 5.69 128.214 4.88C127.386 4.07 126.18 3.665 124.596 3.665C123.012 3.665 121.806 4.07 120.978 4.88C120.15 5.69 119.736 6.86 119.736 8.39V18.65C119.736 19.136 119.565 19.532 119.223 19.838C118.899 20.126 118.467 20.27 117.927 20.27ZM142.403 20C141.035 20 139.973 19.64 139.217 18.92C138.461 18.2 138.083 17.192 138.083 15.896V5.096C138.083 3.836 138.443 2.855 139.163 2.153C139.901 1.451 140.918 1.1 142.214 1.1H145.994C148.064 1.1 149.855 1.478 151.367 2.234C152.879 2.99 154.031 4.079 154.823 5.501C155.633 6.923 156.038 8.615 156.038 10.577C156.038 12.539 155.633 14.231 154.823 15.653C154.031 17.057 152.879 18.137 151.367 18.893C149.873 19.631 148.082 20 145.994 20H142.403ZM145.724 17.219C147.974 17.219 149.648 16.679 150.746 15.599C151.844 14.501 152.393 12.827 152.393 10.577C152.393 8.327 151.835 6.653 150.719 5.555C149.621 4.439 147.956 3.881 145.724 3.881H142.835C142.475 3.881 142.187 3.998 141.971 4.232C141.773 4.466 141.674 4.79 141.674 5.204V15.896C141.674 16.31 141.773 16.634 141.971 16.868C142.187 17.102 142.475 17.219 142.835 17.219H145.724Z" fill="#0B0B0B"/>
    </svg>
    