<svg xmlns="http://www.w3.org/2000/svg" width="583" height="590" viewBox="0 0 583 590" fill="none">
    <path fill-rule="evenodd" clip-rule="evenodd" d="M462.856 309.021L538.762 403.603C554.804 423.591 535.927 452.315 511.214 445.521L494.206 440.844C488.819 439.363 484.033 436.218 480.536 431.861L415.671 351.036C408.497 342.097 407.888 329.581 414.162 320.033L420.13 310.953C429.969 295.981 451.606 295.003 462.856 309.021ZM472.697 196.712L351.676 242.173C340.968 246.196 328.861 242.867 321.687 233.928L281.256 183.549C262.158 159.753 223.805 174.16 225.285 204.574L228.419 268.963C228.975 280.389 222.102 290.848 211.394 294.87L114.574 331.24C109.355 333.201 103.642 333.459 98.2544 331.978L28.1225 312.695C3.40986 305.901 1.73687 271.526 25.6811 262.532L165.131 210.148C177.878 205.359 186.061 192.908 185.399 179.307L178.158 30.5187C176.914 4.97113 209.131 -7.13098 225.173 12.8577L318.599 129.27C327.139 139.912 341.553 143.875 354.301 139.087L493.75 86.7026C517.695 77.708 539.279 104.603 525.249 125.951L485.433 186.535C482.375 191.189 477.916 194.751 472.697 196.712ZM235.453 413.473L242.101 550.075C242.299 554.143 241.203 558.164 238.969 561.563C228.722 577.155 204.438 570.478 203.53 551.819L196.881 415.217C196.244 402.132 208.577 392.277 221.235 395.758C229.307 397.977 235.046 405.129 235.453 413.473ZM464.819 307.453C452.497 292.099 428.8 293.171 418.023 309.568L412.056 318.649C405.184 329.105 405.851 342.814 413.708 352.604L478.574 433.429C482.404 438.202 487.645 441.646 493.545 443.268L510.553 447.945C537.62 455.386 558.294 423.927 540.725 402.034L464.819 307.453ZM473.59 199.066C479.307 196.918 484.19 193.016 487.54 187.919L527.355 127.335C542.721 103.954 519.081 74.4978 492.857 84.349L353.407 136.733C341.679 141.139 328.419 137.493 320.562 127.702L227.135 11.2894C209.566 -10.6029 174.281 2.65164 175.643 30.6324L182.884 179.42C183.493 191.934 175.965 203.389 164.237 207.794L24.7877 260.178C-1.43694 270.029 0.395299 307.677 27.4616 315.119L97.5936 334.402C103.494 336.024 109.751 335.741 115.468 333.594L212.287 297.224C224.015 292.818 231.543 281.363 230.934 268.85L227.8 204.46C226.438 176.48 261.723 163.225 279.293 185.117L319.724 235.496C327.581 245.287 340.842 248.932 352.57 244.527L473.59 199.066ZM221.896 393.334C207.588 389.4 193.646 400.539 194.366 415.331L201.015 551.933C202.041 573.025 229.493 580.572 241.075 562.948C243.6 559.105 244.84 554.56 244.616 549.962L237.967 413.36C237.508 403.927 231.02 395.842 221.896 393.334Z" fill="url(#paint0_linear_2_326)"/>
    <path fill-rule="evenodd" clip-rule="evenodd" d="M463.308 302.223L543.471 393.24C560.413 412.475 542.879 442.039 517.884 436.383L500.681 432.491C495.232 431.258 490.308 428.335 486.615 424.142L418.112 346.364C410.535 337.762 409.351 325.285 415.179 315.458L420.722 306.112C429.861 290.703 451.427 288.734 463.308 302.223ZM467.973 189.565L349.189 240.533C338.679 245.043 326.433 242.272 318.856 233.67L276.158 185.19C255.989 162.291 218.345 178.444 221.222 208.763L227.312 272.95C228.393 284.34 222.009 295.104 211.498 299.614L116.469 340.39C111.345 342.589 105.651 343.109 100.202 341.876L29.2683 325.826C4.27311 320.17 1.02162 285.904 24.5234 275.819L161.396 217.089C173.908 211.721 181.509 198.905 180.222 185.347L166.148 37.0249C163.731 11.5573 195.353 -2.01097 212.294 17.2242L310.96 129.249C319.98 139.49 334.558 142.788 347.07 137.419L483.943 78.6891C507.445 68.6049 530.239 94.4857 517.208 116.458L480.226 178.813C477.386 183.603 473.096 187.367 467.973 189.565ZM240.982 417.008L253.903 553.182C254.288 557.236 253.378 561.304 251.303 564.803C241.785 580.85 217.223 575.292 215.458 556.692L202.537 420.518C201.299 407.474 213.164 397.063 225.967 399.96C234.131 401.807 240.192 408.689 240.982 417.008ZM465.196 300.566C452.184 285.792 428.564 287.949 418.555 304.826L413.012 314.172C406.629 324.934 407.926 338.599 416.224 348.021L484.727 425.799C488.772 430.391 494.165 433.592 500.132 434.943L517.335 438.835C544.711 445.029 563.914 412.65 545.36 391.583L465.196 300.566ZM468.973 191.875C474.585 189.468 479.283 185.345 482.394 180.099L519.375 117.744C533.648 93.6796 508.682 65.334 482.942 76.3787L346.07 135.109C334.558 140.048 321.147 137.013 312.848 127.592L214.183 15.5674C195.628 -5.4997 160.995 9.36066 163.641 37.2537L177.715 185.576C178.899 198.05 171.907 209.84 160.395 214.779L23.5228 273.509C-2.21719 284.554 1.34391 322.083 28.7197 328.278L99.6535 344.328C105.621 345.678 111.858 345.108 117.469 342.701L212.499 301.925C224.01 296.985 231.003 285.196 229.819 272.721L223.728 208.534C221.082 180.641 255.715 165.78 274.269 186.847L316.968 235.327C325.266 244.749 338.678 247.783 350.189 242.844L468.973 191.875ZM226.515 397.508C212.043 394.233 198.631 406.002 200.03 420.747L212.952 556.921C214.947 577.947 242.712 584.229 253.47 566.089C255.816 562.135 256.845 557.536 256.41 552.953L243.488 416.779C242.596 407.376 235.744 399.596 226.515 397.508Z" fill="url(#paint1_linear_2_326)"/>
    <path fill-rule="evenodd" clip-rule="evenodd" d="M463.448 295.425L547.692 382.691C565.496 401.134 549.34 431.473 524.115 426.967L506.754 423.865C501.256 422.882 496.203 420.188 492.322 416.167L420.332 341.594C412.37 333.346 410.615 320.935 415.984 310.851L421.092 301.259C429.512 285.446 450.962 282.491 463.448 295.425ZM462.936 182.654L346.635 239.013C336.344 243.999 323.986 241.792 316.024 233.544L271.151 187.062C249.956 165.106 213.098 182.967 217.363 213.127L226.393 276.978C227.995 288.308 222.112 299.355 211.822 304.342L118.777 349.43C113.761 351.861 108.098 352.641 102.599 351.658L31.0136 338.869C5.78887 334.362 0.968701 300.275 23.9794 289.125L157.992 224.184C170.243 218.247 177.246 205.096 175.338 191.608L154.474 44.0635C150.892 18.7294 181.852 3.72618 199.656 22.1689L303.345 129.578C312.823 139.396 327.535 142.025 339.786 136.088L473.799 71.1471C496.809 59.9964 520.764 84.8108 508.757 107.36L474.682 171.351C472.064 176.267 467.953 180.223 462.936 182.654ZM246.657 420.28L265.813 555.741C266.383 559.774 265.66 563.88 263.749 567.47C254.979 583.939 230.192 579.51 227.575 561.008L208.42 425.547C206.585 412.571 217.958 401.627 230.878 403.935C239.117 405.407 245.487 412.006 246.657 420.28ZM465.258 293.683C451.583 279.517 428.09 282.753 418.868 300.073L413.76 309.664C407.879 320.709 409.801 334.303 418.522 343.336L490.512 417.909C494.763 422.313 500.296 425.264 506.319 426.34L523.68 429.441C551.307 434.377 569.001 401.149 549.502 380.949L465.258 293.683ZM464.042 184.917C469.536 182.254 474.039 177.921 476.906 172.537L510.981 108.546C524.132 83.8495 497.896 56.6718 472.693 68.8845L338.681 133.826C327.41 139.287 313.875 136.869 305.155 127.836L201.466 20.4271C181.967 0.228006 148.057 16.66 151.981 44.4069L172.845 191.951C174.6 204.36 168.157 216.459 156.886 221.921L22.8739 286.862C-2.32819 299.075 2.95104 336.408 30.5781 341.344L102.163 354.133C108.186 355.209 114.389 354.355 119.883 351.693L212.927 306.604C224.198 301.143 230.64 289.043 228.886 276.635L219.856 212.783C215.933 185.036 249.842 168.604 269.342 188.803L314.214 235.286C322.934 244.319 336.469 246.737 347.74 241.275L464.042 184.917ZM231.313 401.46C216.708 398.851 203.852 411.223 205.927 425.891L225.082 561.351C228.04 582.266 256.06 587.272 265.973 568.657C268.134 564.598 268.95 559.957 268.306 555.397L249.15 419.937C247.827 410.583 240.626 403.124 231.313 401.46Z" fill="url(#paint2_linear_2_326)"/>
    <path fill-rule="evenodd" clip-rule="evenodd" d="M463.276 288.68L551.392 372.046C570.014 389.664 555.259 420.71 529.859 417.352L512.378 415.041C506.84 414.309 501.672 411.846 497.612 408.006L422.312 336.766C413.984 328.887 411.666 316.565 416.57 306.246L421.235 296.432C428.926 280.25 450.216 276.324 463.276 288.68ZM457.631 176.032L344.033 237.62C333.981 243.069 321.538 241.424 313.209 233.545L266.274 189.141C244.105 168.166 208.104 187.685 213.736 217.624L225.662 281.009C227.778 292.256 222.405 303.561 212.353 309.01L121.472 358.282C116.572 360.938 110.951 361.975 105.414 361.243L33.3313 351.714C7.93138 348.356 1.56528 314.518 24.0411 302.333L154.939 231.366C166.905 224.879 173.301 211.421 170.782 198.032L143.226 51.5646C138.494 26.4154 168.735 10.0202 187.358 27.6385L295.813 130.246C305.727 139.626 320.541 141.584 332.507 135.097L463.405 64.1304C485.881 51.945 510.937 75.6502 499.97 98.7242L468.848 164.206C466.458 169.236 462.531 173.376 457.631 176.032ZM252.425 423.265L277.724 557.737C278.477 561.741 277.943 565.876 276.197 569.55C268.187 586.402 243.228 583.102 239.772 564.735L214.473 430.263C212.05 417.382 222.911 405.931 235.92 407.65C244.217 408.747 250.88 415.051 252.425 423.265ZM465.004 286.858C450.701 273.325 427.383 277.625 418.96 295.348L414.295 305.162C408.924 316.464 411.462 329.959 420.584 338.588L495.883 409.828C500.33 414.034 505.991 416.732 512.055 417.534L529.537 419.845C557.356 423.522 573.516 389.519 553.121 370.223L465.004 286.858ZM458.839 178.243C464.205 175.333 468.505 170.799 471.124 165.29L502.246 99.8084C514.257 74.5369 486.814 48.5741 462.198 61.9199L331.3 132.886C320.292 138.855 306.663 137.053 297.541 128.424L189.086 25.8161C168.69 6.5199 135.569 24.4765 140.751 52.0208L168.307 198.488C170.625 210.806 164.74 223.187 153.732 229.156L22.834 300.122C-1.78237 313.468 5.19002 350.529 33.009 354.206L105.092 363.735C111.156 364.537 117.313 363.402 122.679 360.492L213.56 311.221C224.569 305.252 230.454 292.871 228.136 280.553L216.211 217.168C211.029 189.623 244.15 171.667 264.546 190.963L311.481 235.367C320.602 243.997 334.231 245.799 345.24 239.83L458.839 178.243ZM236.243 405.158C221.537 403.214 209.259 416.158 211.998 430.719L237.297 565.191C241.204 585.953 269.418 589.683 278.472 570.634C280.446 566.481 281.05 561.807 280.199 557.281L254.9 422.809C253.153 413.524 245.621 406.398 236.243 405.158Z" fill="url(#paint3_linear_2_326)"/>
    <path fill-rule="evenodd" clip-rule="evenodd" d="M462.792 281.885L554.635 361.136C574.045 377.884 560.735 409.579 535.211 407.388L517.644 405.881C512.08 405.403 506.804 403.18 502.573 399.529L424.089 331.805C415.408 324.315 412.527 312.111 416.951 301.577L421.159 291.557C428.096 275.037 449.18 270.139 462.792 281.885ZM451.975 169.597L341.345 236.338C331.557 242.243 319.052 241.17 310.372 233.68L261.452 191.467C238.345 171.528 203.284 192.679 210.287 222.334L225.112 285.115C227.743 296.255 222.896 307.795 213.107 313.701L124.601 367.095C119.829 369.973 114.263 371.266 108.698 370.789L36.2649 364.573C10.7412 362.383 2.82702 328.868 24.7154 315.663L152.192 238.759C163.845 231.729 169.615 217.99 166.483 204.728L132.226 59.6565C126.344 34.747 155.795 16.9801 175.205 33.7287L288.246 131.271C298.58 140.188 313.467 141.466 325.12 134.436L452.597 57.5318C474.485 44.3271 500.601 66.8621 490.708 90.4181L462.635 157.267C460.478 162.403 456.747 166.719 451.975 169.597ZM258.384 426.016L289.835 559.206C290.772 563.172 290.428 567.328 288.853 571.078C281.628 588.282 256.547 586.13 252.251 567.938L220.799 434.747C217.787 421.989 228.108 410.05 241.181 411.172C249.518 411.887 256.463 417.88 258.384 426.016ZM464.434 279.985C449.526 267.121 426.434 272.485 418.836 290.578L414.628 300.598C409.783 312.136 412.939 325.502 422.446 333.705L500.931 401.429C505.565 405.428 511.343 407.863 517.437 408.386L535.004 409.893C562.958 412.292 577.536 377.579 556.278 359.236L464.434 279.985ZM453.282 171.75C458.508 168.598 462.595 163.87 464.957 158.246L493.031 91.397C503.865 65.5976 475.262 40.9163 451.289 55.3786L323.813 132.282C313.092 138.75 299.396 137.575 289.889 129.371L176.847 31.8287C155.589 13.485 123.333 32.9439 129.776 60.2258L164.033 205.298C166.914 217.499 161.606 230.138 150.885 236.606L23.4081 313.51C-0.564866 327.972 8.1031 364.68 36.0577 367.078L108.491 373.294C114.585 373.817 120.682 372.401 125.908 369.248L214.415 315.854C225.136 309.386 230.444 296.747 227.563 284.546L212.737 221.764C206.295 194.482 238.551 175.024 259.809 193.367L308.729 235.58C318.236 243.783 331.932 244.959 342.653 238.491L453.282 171.75ZM241.389 408.667C226.611 407.399 214.943 420.894 218.349 435.317L249.8 568.507C254.656 589.072 283.008 591.505 291.175 572.057C292.956 567.818 293.344 563.12 292.286 558.637L260.835 425.446C258.663 416.25 250.812 409.475 241.389 408.667Z" fill="url(#paint4_linear_2_326)"/>
    <path fill-rule="evenodd" clip-rule="evenodd" d="M461.998 275.127L557.368 350.103C577.523 365.949 565.684 398.224 540.09 397.203L522.476 396.501C516.896 396.279 511.525 394.299 507.131 390.844L425.633 326.773C416.619 319.687 413.181 307.626 417.116 296.899L420.859 286.696C427.03 269.873 447.863 264.015 461.998 275.127ZM446.041 163.435L338.608 235.178C329.102 241.526 316.563 241.026 307.549 233.94L256.751 194.004C232.756 175.141 198.709 197.877 207.064 227.184L224.753 289.231C227.891 300.241 223.58 311.992 214.074 318.34L128.125 375.737C123.491 378.831 117.991 380.378 112.411 380.155L39.7796 377.26C14.1862 376.24 4.7432 343.117 25.9992 328.922L149.793 246.254C161.109 238.697 166.242 224.706 162.505 211.6L121.631 68.2257C114.613 43.6077 143.213 24.509 163.368 40.3543L280.751 132.636C291.481 141.072 306.408 141.667 317.725 134.11L441.519 51.4418C462.775 37.2472 489.893 58.5668 481.094 82.5544L456.122 150.628C454.204 155.858 450.675 160.341 446.041 163.435ZM264.451 428.483L301.978 560.114C303.095 564.034 302.942 568.201 301.541 572.021C295.115 589.54 269.965 588.537 264.839 570.558L227.313 438.926C223.718 426.317 233.479 413.916 246.588 414.439C254.947 414.772 262.159 420.442 264.451 428.483ZM463.552 273.153C448.071 260.983 425.253 267.399 418.494 285.824L414.752 296.027C410.442 307.776 414.207 320.986 424.08 328.747L505.578 392.818C510.39 396.601 516.273 398.77 522.384 399.013L539.998 399.716C568.029 400.833 580.996 365.484 558.922 348.13L463.552 273.153ZM447.446 165.526C452.521 162.137 456.386 157.227 458.487 151.5L483.458 83.4261C493.096 57.1541 463.394 33.8039 440.114 49.3504L316.32 132.019C305.909 138.971 292.176 138.424 282.304 130.663L164.922 38.3809C142.847 21.0265 111.523 41.944 119.21 68.9066L160.084 212.281C163.521 224.339 158.8 237.21 148.388 244.162L24.5947 326.831C1.31435 342.377 11.6566 378.655 39.6876 379.773L112.319 382.668C118.43 382.911 124.454 381.217 129.53 377.828L215.479 320.432C225.89 313.479 230.612 300.608 227.174 288.55L209.486 226.503C201.799 199.541 233.123 178.623 255.197 195.978L305.996 235.914C315.868 243.675 329.601 244.222 340.012 237.27L447.446 165.526ZM246.68 411.927C231.862 411.336 220.828 425.354 224.891 439.607L262.417 571.238C268.212 591.563 296.641 592.696 303.906 572.892C305.489 568.575 305.662 563.864 304.399 559.433L266.873 427.802C264.282 418.712 256.129 412.303 246.68 411.927Z" fill="url(#paint5_linear_2_326)"/>
    <path fill-rule="evenodd" clip-rule="evenodd" d="M460.992 268.934L559.435 339.832C580.239 354.815 569.777 387.565 544.167 387.625L526.541 387.666C520.958 387.679 515.508 385.927 510.973 382.661L426.849 322.076C417.545 315.375 413.6 303.468 417.077 292.583L420.385 282.229C425.838 265.159 446.402 258.426 460.992 268.934ZM440.326 157.999L336.039 234.22C326.811 240.964 314.264 240.994 304.96 234.293L252.525 196.53C227.757 178.693 194.707 202.848 204.293 231.781L224.588 293.035C228.189 303.903 224.38 315.828 215.152 322.573L131.72 383.551C127.222 386.838 121.792 388.616 116.209 388.629L43.5299 388.8C17.9197 388.86 7.08538 356.16 27.719 341.079L147.888 253.252C158.873 245.223 163.408 231.026 159.121 218.087L112.224 76.5452C104.172 52.2417 131.934 31.951 152.739 46.9343L273.904 134.196C284.98 142.173 299.917 142.138 310.902 134.109L431.071 46.281C451.705 31.2005 479.697 51.3603 471.922 75.7009L449.855 144.777C448.16 150.083 444.825 154.712 440.326 157.999ZM270.136 430.507L313.192 560.457C314.474 564.326 314.498 568.497 313.26 572.373C307.581 590.15 282.414 590.209 276.533 572.459L233.478 442.509C229.353 430.061 238.58 417.258 251.697 417.228C260.062 417.208 267.506 422.569 270.136 430.507ZM462.46 266.897C446.48 255.388 423.958 262.762 417.986 281.458L414.678 291.812C410.87 303.734 415.19 316.774 425.381 324.113L509.505 384.698C514.472 388.276 520.441 390.195 526.555 390.181L544.182 390.139C572.231 390.073 583.689 354.204 560.903 337.794L462.46 266.897ZM441.818 160.03C446.744 156.429 450.398 151.36 452.254 145.548L474.321 76.4723C482.837 49.8135 452.178 27.7338 429.58 44.2505L309.411 132.078C299.304 139.465 285.563 139.497 275.372 132.158L154.207 44.8967C131.421 28.4866 101.015 50.7096 109.834 77.3277L156.731 218.87C160.675 230.774 156.503 243.834 146.396 251.221L26.2275 339.049C3.62875 355.565 15.4949 391.38 43.5442 391.314L116.223 391.144C122.338 391.129 128.285 389.182 133.211 385.582L216.644 324.603C226.75 317.217 230.922 304.156 226.978 292.252L206.683 230.998C197.864 204.38 228.27 182.157 251.056 198.567L303.492 236.331C313.682 243.669 327.424 243.637 337.53 236.251L441.818 160.03ZM251.683 414.713C236.855 414.748 226.425 429.221 231.088 443.292L274.143 573.241C280.791 593.306 309.239 593.239 315.659 573.144C317.058 568.763 317.031 564.048 315.582 559.674L272.526 429.724C269.553 420.751 261.139 414.691 251.683 414.713Z" fill="url(#paint6_linear_2_326)"/>
    <path fill-rule="evenodd" clip-rule="evenodd" d="M459.603 262.263L561.186 328.583C582.655 342.599 573.711 375.799 548.135 377.034L530.532 377.883C524.956 378.152 519.433 376.651 514.752 373.596L427.944 316.922C418.343 310.654 413.856 298.939 416.828 287.904L419.656 277.408C424.317 260.103 444.547 252.434 459.603 262.263ZM433.862 152.376L333.204 233.309C324.298 240.47 311.768 241.075 302.167 234.807L248.058 199.482C222.501 182.796 190.601 208.445 201.506 236.912L224.592 297.18C228.689 307.874 225.432 319.963 216.526 327.124L135.998 391.873C131.656 395.363 126.315 397.388 120.74 397.658L48.1561 401.16C22.5795 402.394 10.2547 370.22 30.17 354.207L146.155 260.949C156.758 252.424 160.635 238.033 155.758 225.302L102.41 86.0375C93.2503 62.1251 120.046 40.5799 141.515 54.5958L266.545 136.224C277.975 143.686 292.892 142.966 303.495 134.441L419.481 41.1825C439.396 25.1696 468.282 44.0279 461.634 68.7031L442.771 138.729C441.322 144.108 438.203 148.885 433.862 152.376ZM276.406 432.44L325.385 560.299C326.843 564.106 327.059 568.273 326.001 572.201C321.146 590.222 296.013 591.435 289.323 573.971L240.344 446.113C235.652 433.865 244.279 420.65 257.379 420.018C265.733 419.615 273.415 424.63 276.406 432.44ZM460.976 260.16C444.486 249.395 422.33 257.795 417.224 276.747L414.397 287.243C411.141 299.329 416.056 312.16 426.571 319.025L513.38 375.699C518.505 379.045 524.555 380.689 530.662 380.394L548.265 379.545C576.277 378.193 586.072 341.831 562.559 326.48L460.976 260.16ZM435.445 154.336C440.2 150.513 443.615 145.281 445.202 139.389L464.066 69.3637C471.346 42.3385 439.71 21.6842 417.898 39.2221L301.912 132.48C292.157 140.323 278.434 140.986 267.918 134.121L142.887 52.4928C119.374 37.1421 90.0266 60.7391 100.059 86.9289L153.407 226.193C157.894 237.906 154.327 251.146 144.572 258.989L28.587 352.247C6.77498 369.785 20.2735 405.023 48.2859 403.671L120.869 400.169C126.976 399.874 132.826 397.656 137.581 393.833L218.109 329.085C227.864 321.241 231.43 308.001 226.944 296.289L203.857 236.021C193.824 209.831 223.172 186.234 246.685 201.585L300.794 236.91C311.309 243.775 325.033 243.113 334.787 235.269L435.445 154.336ZM257.249 417.507C242.441 418.222 232.689 433.159 237.993 447.004L286.971 574.862C294.534 594.604 322.944 593.233 328.432 572.862C329.628 568.421 329.385 563.711 327.736 559.407L278.758 431.549C275.376 422.72 266.692 417.051 257.249 417.507Z" fill="url(#paint7_linear_2_326)"/>
    <path fill-rule="evenodd" clip-rule="evenodd" d="M457.913 255.667L562.418 317.279C584.504 330.3 577.095 363.88 551.606 366.283L534.063 367.937C528.506 368.461 522.92 367.215 518.106 364.376L428.801 311.726C418.924 305.903 413.904 294.404 416.366 283.243L418.709 272.627C422.571 255.124 442.424 246.536 457.913 255.667ZM427.159 147.057L330.338 232.524C321.771 240.086 309.283 241.263 299.406 235.44L243.741 202.623C217.449 187.122 186.764 214.208 198.963 242.15L224.788 301.308C229.37 311.805 226.672 324.032 218.105 331.594L140.646 399.97C136.47 403.656 131.228 405.924 125.671 406.448L53.3358 413.269C27.8467 415.672 14.0601 384.091 33.2166 367.181L144.782 268.699C154.981 259.696 158.193 245.14 152.738 232.644L93.0623 95.9461C82.8157 72.4744 108.591 49.7223 130.676 62.7431L259.303 138.576C271.062 145.508 285.928 144.106 296.127 135.103L407.692 36.6213C426.849 19.7114 456.565 37.2309 451.059 62.1881L435.431 133.014C434.231 138.455 431.335 143.37 427.159 147.057ZM282.747 434.075L337.535 559.578C339.166 563.315 339.573 567.467 338.696 571.441C334.674 589.668 309.627 592.03 302.143 574.888L247.356 449.386C242.107 437.364 250.117 423.766 263.173 422.535C271.498 421.75 279.4 426.409 282.747 434.075ZM459.187 253.503C442.223 243.502 420.479 252.909 416.25 272.078L413.907 282.694C411.21 294.918 416.708 307.512 427.526 313.89L516.831 366.54C522.104 369.649 528.222 371.014 534.308 370.441L551.851 368.786C579.767 366.154 587.882 329.376 563.693 315.115L459.187 253.503ZM428.83 148.943C433.404 144.905 436.576 139.522 437.89 133.563L453.518 62.7368C459.549 35.4027 427.002 16.2148 406.021 34.7351L294.455 133.217C285.073 141.5 271.396 142.79 260.578 136.412L131.951 60.5792C107.762 46.3183 79.5323 71.2372 90.7547 96.9443L150.43 233.642C155.449 245.139 152.494 258.53 143.111 266.813L31.5454 365.295C10.5646 383.815 25.6641 418.404 53.5808 415.772L125.916 408.951C132.002 408.377 137.743 405.893 142.317 401.856L219.776 333.48C229.159 325.198 232.114 311.806 227.095 300.31L201.27 241.152C190.048 215.445 218.277 190.526 242.467 204.787L298.131 237.604C308.949 243.982 322.626 242.692 332.009 234.41L428.83 148.943ZM262.928 420.032C248.17 421.424 239.115 436.794 245.048 450.384L299.836 575.886C308.295 595.264 336.609 592.594 341.155 571.99C342.146 567.498 341.687 562.804 339.842 558.579L285.055 433.077C281.272 424.411 272.339 419.145 262.928 420.032Z" fill="url(#paint8_linear_2_326)"/>
    <path fill-rule="evenodd" clip-rule="evenodd" d="M455.937 249.21L563.124 306.024C585.776 318.031 579.904 351.917 554.555 355.475L537.108 357.924C531.582 358.7 525.946 357.708 521.008 355.091L429.412 306.54C419.282 301.171 413.744 289.91 415.696 278.646L417.552 267.934C420.613 250.271 440.051 240.789 455.937 249.21ZM420.276 142.091L327.46 231.877C319.247 239.822 306.828 241.565 296.698 236.195L239.605 205.933C212.638 191.639 183.223 220.094 196.679 247.458L225.166 305.391C230.221 315.671 228.083 328.01 219.871 335.954L145.615 407.785C141.612 411.658 136.479 414.162 130.953 414.937L59.0142 425.035C33.6647 428.594 18.4568 397.666 36.8208 379.902L143.771 276.443C153.548 266.985 156.094 252.296 150.076 240.059L84.249 106.19C72.9462 83.2039 97.6547 59.302 120.307 71.3088L252.233 141.236C264.293 147.629 279.078 145.553 288.855 136.096L395.806 32.6365C414.17 14.872 444.648 31.0272 440.284 56.2124L427.9 127.685C426.948 133.175 424.28 138.218 420.276 142.091ZM289.101 435.411L349.536 558.316C351.336 561.976 351.931 566.106 351.236 570.116C348.049 588.51 323.139 592.007 314.884 575.219L254.448 452.314C248.659 440.541 256.04 426.592 269.024 424.77C277.304 423.607 285.409 427.903 289.101 435.411ZM457.112 246.99C439.713 237.768 418.423 248.153 415.071 267.497L413.215 278.21C411.077 290.546 417.142 302.879 428.237 308.76L519.833 357.311C525.241 360.177 531.414 361.264 537.467 360.414L554.913 357.965C582.677 354.068 589.108 316.954 564.298 303.804L457.112 246.99ZM422.031 143.899C426.416 139.658 429.339 134.135 430.381 128.122L442.765 56.649C447.545 29.0654 414.164 11.3716 394.051 30.8279L287.1 134.287C278.105 142.988 264.503 144.897 253.408 139.016L121.482 69.089C96.6721 55.9385 69.6103 82.1168 81.9896 107.292L147.817 241.161C153.353 252.419 151.011 265.933 142.016 274.634L35.0658 378.093C14.9529 397.55 31.609 431.423 59.3728 427.525L131.312 417.427C137.364 416.577 142.986 413.835 147.37 409.594L221.626 337.763C230.62 329.062 232.962 315.548 227.426 304.289L198.938 246.356C186.559 221.181 213.621 195.003 238.431 208.153L295.523 238.415C306.618 244.296 320.22 242.387 329.215 233.686L422.031 143.899ZM268.665 422.28C253.989 424.34 245.644 440.108 252.189 453.416L312.624 576.321C321.956 595.298 350.114 591.345 353.717 570.553C354.503 566.02 353.83 561.351 351.796 557.214L291.36 434.309C287.187 425.822 278.025 420.966 268.665 422.28Z" fill="url(#paint9_linear_2_326)"/>
    <path fill-rule="evenodd" clip-rule="evenodd" d="M453.649 242.785L563.318 294.634C586.495 305.592 582.188 339.717 557.033 344.434L539.72 347.681C534.236 348.709 528.561 347.976 523.509 345.588L429.791 301.28C419.426 296.38 413.378 285.383 414.809 274.04L416.171 263.252C418.415 245.465 437.395 235.101 453.649 242.785ZM413.106 137.398L324.53 231.359C316.692 239.672 304.368 241.983 294.003 237.083L235.588 209.466C207.996 196.421 179.925 226.199 194.623 252.922L225.74 309.496C231.261 319.535 229.693 331.961 221.855 340.274L150.992 415.445C147.172 419.498 142.161 422.234 136.677 423.263L65.289 436.65C40.1338 441.368 23.5223 411.165 41.0473 392.575L143.112 284.306C152.442 274.408 154.309 259.616 147.736 247.665L75.8332 116.935C63.4871 94.488 87.0669 69.4748 110.244 80.4324L245.226 144.248C257.565 150.082 272.237 147.331 281.567 137.433L383.632 29.1642C401.157 10.5739 432.342 25.3171 429.141 50.6796L420.057 122.656C419.359 128.185 416.926 133.345 413.106 137.398ZM295.575 436.468L361.589 556.491C363.554 560.065 364.338 564.165 363.829 568.203C361.491 586.726 336.772 591.361 327.755 574.967L261.741 454.944C255.418 443.447 262.149 429.172 275.033 426.756C283.249 425.215 291.542 429.136 295.575 436.468ZM454.72 240.514C436.918 232.097 416.131 243.449 413.673 262.93L412.311 273.718C410.743 286.141 417.368 298.185 428.72 303.552L522.438 347.859C527.971 350.476 534.187 351.278 540.193 350.152L557.506 346.905C585.057 341.738 589.773 304.363 564.389 292.362L454.72 240.514ZM414.942 139.124C419.126 134.686 421.791 129.034 422.555 122.978L431.639 51.0021C435.144 23.2241 400.99 7.07675 381.796 27.4376L279.731 135.707C271.147 144.813 257.65 147.344 246.297 141.977L111.315 78.1607C85.9309 66.1596 60.1054 93.5549 73.6272 118.14L145.53 248.87C151.577 259.864 149.86 273.473 141.276 282.579L39.2112 390.848C20.0172 411.209 38.2106 444.288 65.7617 439.121L137.15 425.734C143.156 424.608 148.644 421.61 152.828 417.172L223.691 342.001C232.275 332.895 233.993 319.286 227.945 308.292L196.829 251.717C183.307 227.132 209.132 199.737 234.517 211.738L292.932 239.355C304.284 244.722 317.782 242.191 326.366 233.085L414.942 139.124ZM274.56 424.285C259.996 427.016 252.387 443.153 259.535 456.149L325.549 576.172C335.742 594.704 363.684 589.464 366.327 568.525C366.903 563.96 366.017 559.326 363.795 555.286L297.781 435.263C293.222 426.975 283.848 422.543 274.56 424.285Z" fill="url(#paint10_linear_2_326)"/>
    <path fill-rule="evenodd" clip-rule="evenodd" d="M451.071 236.481L562.988 283.264C586.64 293.151 583.904 327.443 558.996 333.307L541.853 337.343C536.423 338.622 530.721 338.149 525.565 335.994L429.927 296.015C419.349 291.594 412.803 280.883 413.713 269.485L414.577 258.645C416.003 240.771 434.484 229.547 451.071 236.481ZM405.74 133.043L321.583 230.973C314.136 239.638 301.933 242.511 291.356 238.09L231.744 213.171C203.586 201.4 176.916 232.436 192.822 258.462L226.498 313.562C232.473 323.339 231.477 335.825 224.031 344.49L156.703 422.836C153.073 427.06 148.194 430.024 142.764 431.302L72.0761 447.944C47.1676 453.809 29.1899 424.394 45.8407 405.018L142.813 292.175C151.678 281.86 152.864 266.995 145.75 255.356L67.9342 128.034C54.5728 106.172 76.9762 80.102 100.628 89.989L238.377 147.571C250.969 152.834 265.497 149.414 274.361 139.099L371.334 26.2558C387.985 6.88012 419.809 20.1831 417.776 45.6693L412.007 117.996C411.563 123.552 409.37 128.82 405.74 133.043ZM302.076 437.223L373.519 554.118C375.647 557.598 376.618 561.659 376.294 565.716C374.81 584.33 350.333 590.093 340.574 574.126L269.131 457.232C262.288 446.034 268.356 431.464 281.114 428.461C289.249 426.545 297.712 430.083 302.076 437.223ZM452.037 234.162C433.87 226.568 413.629 238.861 412.067 258.437L411.203 269.277C410.207 281.761 417.376 293.491 428.961 298.334L524.599 338.313C530.247 340.673 536.491 341.191 542.438 339.79L559.581 335.754C586.862 329.331 589.858 291.774 563.953 280.946L452.037 234.162ZM407.653 134.684C411.629 130.058 414.031 124.289 414.517 118.204L420.286 45.8772C422.512 17.9637 387.658 3.39384 369.421 24.6148L272.448 137.458C264.293 146.948 250.927 150.095 239.342 145.252L101.594 87.6703C75.6894 76.8417 51.1523 105.394 65.7862 129.338L143.602 256.66C150.147 267.369 149.056 281.044 140.9 290.534L43.9276 403.377C25.6911 424.598 45.3808 456.814 72.6616 450.392L143.349 433.749C149.296 432.349 154.641 429.103 158.616 424.477L225.944 346.131C234.099 336.641 235.19 322.965 228.646 312.257L194.97 257.157C180.336 233.213 204.873 204.661 230.778 215.49L290.39 240.408C301.975 245.251 315.34 242.105 323.496 232.614L407.653 134.684ZM280.528 426.013C266.107 429.409 259.247 445.879 266.983 458.536L338.426 575.431C349.457 593.479 377.126 586.965 378.804 565.924C379.17 561.337 378.072 556.748 375.667 552.813L304.224 435.919C299.291 427.847 289.725 423.848 280.528 426.013Z" fill="url(#paint11_linear_2_326)"/>
    <path fill-rule="evenodd" clip-rule="evenodd" d="M448.561 231.027L562.264 273.264C586.293 282.19 584.948 316.568 560.3 323.434L543.337 328.158C537.964 329.655 532.248 329.413 527.01 327.467L429.846 291.374C419.099 287.382 412.126 276.943 412.573 265.516L412.999 254.648C413.7 236.729 431.709 224.767 448.561 231.027ZM399.088 129.489L318.973 230.747C311.884 239.706 299.809 243.07 289.063 239.078L228.499 216.58C199.892 205.954 174.502 238.044 191.447 263.411L227.32 317.115C233.685 326.644 233.195 339.162 226.106 348.121L162.012 429.13C158.557 433.497 153.801 436.656 148.428 438.152L78.4812 457.635C53.8336 464.5 34.6831 435.83 50.5342 415.796L142.85 299.118C151.289 288.452 151.872 273.55 144.294 262.206L61.4011 138.109C47.1679 116.801 68.4955 89.8456 92.5251 98.7718L232.472 150.757C245.265 155.51 259.641 151.506 268.08 140.839L360.395 24.1618C376.246 4.12773 408.578 16.1378 407.578 41.6886L404.74 114.199C404.522 119.769 402.544 125.121 399.088 129.489ZM307.829 437.643L383.933 551.576C386.199 554.968 387.334 558.986 387.175 563.054C386.444 581.715 362.224 588.461 351.829 572.899L275.725 458.967C268.435 448.053 273.908 433.248 286.532 429.732C294.582 427.49 303.18 430.683 307.829 437.643ZM449.432 228.671C430.975 221.815 411.251 234.916 410.483 254.541L410.057 265.41C409.568 277.924 417.205 289.358 428.975 293.73L526.139 329.823C531.876 331.954 538.136 332.219 544.021 330.58L560.984 325.856C587.979 318.337 589.453 280.684 563.135 270.908L449.432 228.671ZM401.066 131.052C404.851 126.268 407.017 120.406 407.256 114.306L410.094 41.7951C411.189 13.8109 375.778 0.656992 358.418 22.5991L266.102 139.277C258.338 149.09 245.113 152.773 233.343 148.401L93.396 96.4157C67.0779 86.6394 43.7192 116.162 59.3079 139.5L142.201 263.596C149.172 274.033 148.636 287.743 140.872 297.556L48.5565 414.233C31.1958 436.175 52.1702 467.575 79.1651 460.057L149.112 440.574C154.997 438.935 160.205 435.476 163.99 430.693L228.084 349.684C235.848 339.871 236.384 326.161 229.413 315.724L193.54 262.02C177.951 238.683 201.31 209.16 227.628 218.936L288.192 241.434C299.961 245.806 313.187 242.122 320.951 232.309L401.066 131.052ZM285.848 427.31C271.577 431.285 265.391 448.02 273.632 460.357L349.736 574.29C361.486 591.881 388.865 584.255 389.691 563.161C389.871 558.563 388.588 554.02 386.026 550.185L309.922 436.253C304.667 428.386 294.948 424.775 285.848 427.31Z" fill="url(#paint12_linear_2_326)"/>
    <path fill-rule="evenodd" clip-rule="evenodd" d="M445.443 224.956L560.951 261.941C585.362 269.758 585.599 304.167 561.296 312.156L544.571 317.654C539.273 319.396 533.553 319.416 528.232 317.712L429.525 286.106C418.608 282.61 411.163 272.5 411.085 261.063L411.01 250.185C410.886 232.251 428.324 219.474 445.443 224.956ZM391.362 125.777L315.999 230.617C309.331 239.893 297.424 243.807 286.508 240.311L224.983 220.611C195.922 211.306 172.038 244.531 190.128 269.098L228.427 321.109C235.223 330.338 235.309 342.867 228.641 352.143L168.349 436.017C165.098 440.539 160.494 443.913 155.196 445.654L86.2295 468.326C61.9274 476.315 41.4817 448.549 56.3925 427.806L143.232 307.001C151.17 295.958 151.067 281.042 142.977 270.056L54.4785 149.872C39.2829 129.235 59.3452 101.326 83.7562 109.143L225.924 154.665C238.921 158.827 253.095 154.167 261.033 143.124L347.872 22.319C362.783 1.57626 395.628 12.0932 395.804 37.6668L396.304 110.242C396.342 115.817 394.612 121.255 391.362 125.777ZM314.381 437.837L395.632 548.178C398.051 551.464 399.369 555.426 399.397 559.498C399.526 578.176 375.645 586.026 364.547 570.954L283.296 460.614C275.513 450.044 280.299 435.002 292.746 430.91C300.684 428.3 309.418 431.097 314.381 437.837ZM446.205 222.562C427.455 216.558 408.357 230.551 408.492 250.194L408.567 261.072C408.653 273.598 416.807 284.671 428.763 288.5L527.47 320.106C533.298 321.972 539.563 321.95 545.365 320.043L562.091 314.544C588.708 305.795 588.448 268.108 561.712 259.548L446.205 222.562ZM393.409 127.248C396.969 122.295 398.864 116.339 398.822 110.233L398.322 37.6579C398.129 9.64867 362.156 -1.86991 345.825 20.8484L258.986 141.653C251.683 151.813 238.643 156.1 226.686 152.271L84.5178 106.749C57.782 98.1878 35.8089 128.755 52.4518 151.357L140.95 271.541C148.393 281.648 148.488 295.371 141.185 305.531L54.3453 426.335C38.0145 449.054 60.4073 479.464 87.024 470.714L155.991 448.043C161.793 446.135 166.836 442.44 170.396 437.488L230.688 353.614C237.991 343.454 237.897 329.732 230.454 319.624L192.155 267.613C175.512 245.011 197.485 214.444 224.221 223.005L285.746 242.705C297.703 246.534 310.743 242.247 318.046 232.087L393.409 127.248ZM291.952 428.521C277.881 433.147 272.472 450.151 281.27 462.099L362.52 572.439C375.065 589.476 402.061 580.602 401.915 559.489C401.883 554.887 400.393 550.407 397.659 546.693L316.408 436.352C310.798 428.733 300.924 425.572 291.952 428.521Z" fill="url(#paint13_linear_2_326)"/>
    <path fill-rule="evenodd" clip-rule="evenodd" d="M442.058 219.044L559.124 250.711C583.865 257.403 585.681 291.771 561.774 300.865L545.321 307.123C540.109 309.106 534.398 309.388 529.004 307.929L428.966 280.868C417.902 277.875 410.002 268.115 409.398 256.692L408.824 245.827C407.878 227.914 424.708 214.351 442.058 219.044ZM383.49 122.43L313.03 230.624C306.795 240.197 295.083 244.653 284.019 241.66L221.664 224.793C192.211 216.826 169.881 251.114 189.077 274.831L229.716 325.043C236.928 333.952 237.589 346.466 231.354 356.039L174.984 442.597C171.945 447.264 167.501 450.845 162.29 452.827L94.4464 478.635C70.5402 487.729 48.8448 460.923 62.7856 439.517L143.976 314.846C151.398 303.45 150.611 288.552 142.026 277.946L48.1182 161.92C31.9937 141.997 50.7509 113.195 75.4914 119.887L219.578 158.863C232.749 162.426 246.693 157.122 254.115 145.725L335.305 21.0548C349.246 -0.351661 382.534 8.6527 383.883 34.1954L387.713 106.683C388.007 112.251 386.529 117.763 383.49 122.43ZM320.924 437.733L407.141 544.256C409.708 547.428 411.207 551.327 411.422 555.394C412.407 574.048 388.915 582.985 377.139 568.435L290.922 461.911C282.663 451.707 286.753 436.459 298.997 431.801C306.805 428.831 315.658 431.226 320.924 437.733ZM442.709 216.618C423.706 211.477 405.273 226.332 406.31 245.951L406.884 256.816C407.545 269.327 416.197 280.017 428.315 283.295L528.354 310.355C534.26 311.953 540.516 311.644 546.224 309.473L562.677 303.214C588.86 293.254 586.872 255.614 559.775 248.284L442.709 216.618ZM385.602 123.805C388.931 118.694 390.55 112.657 390.228 106.558L386.398 34.0712C384.919 6.096 348.461 -3.76604 333.193 19.6792L252.002 144.35C245.174 154.835 232.347 159.714 220.229 156.436L76.1421 117.461C49.0456 110.131 28.5018 141.676 46.162 163.496L140.07 279.522C147.968 289.28 148.692 302.986 141.864 313.471L60.6734 438.141C45.4049 461.586 69.1665 490.945 95.3495 480.985L163.193 455.177C168.901 453.006 173.768 449.084 177.096 443.973L233.466 357.415C240.295 346.93 239.57 333.224 231.673 323.466L191.033 273.255C173.373 251.435 193.916 219.889 221.013 227.219L283.368 244.086C295.486 247.364 308.313 242.485 315.142 232L385.602 123.805ZM298.094 429.451C284.253 434.717 279.63 451.953 288.966 463.488L375.183 570.011C388.495 586.458 415.05 576.357 413.936 555.269C413.693 550.672 411.999 546.265 409.097 542.68L322.881 436.156C316.927 428.801 306.92 426.094 298.094 429.451Z" fill="url(#paint14_linear_2_326)"/>
    <path fill-rule="evenodd" clip-rule="evenodd" d="M438.435 213.336L556.804 239.661C581.819 245.225 585.197 279.479 561.733 289.65L545.584 296.65C540.469 298.868 534.777 299.409 529.324 298.196L428.172 275.7C416.985 273.212 408.65 263.818 407.527 252.433L406.459 241.604C404.699 223.749 420.891 209.434 438.435 213.336ZM375.538 119.465L310.086 230.762C304.295 240.61 292.799 245.593 281.612 243.105L218.563 229.083C188.783 222.46 168.04 257.731 188.292 280.556L231.17 328.879C238.778 337.453 240.008 349.926 234.216 359.774L181.853 448.814C179.03 453.614 174.755 457.394 169.64 459.611L103.051 488.475C79.5875 498.646 56.6976 472.849 69.6475 450.829L145.067 322.583C151.961 310.86 150.497 296.011 141.439 285.804L42.3612 174.142C25.3489 154.969 42.7729 125.341 67.7886 130.905L213.478 163.306C226.797 166.268 240.482 160.336 247.376 148.612L322.795 20.3666C335.745 -1.65377 369.404 5.83182 371.914 31.2906L379.039 103.54C379.587 109.09 378.361 114.665 375.538 119.465ZM327.399 437.33L418.363 539.846C421.071 542.898 422.746 546.726 423.145 550.779C424.979 569.373 401.921 579.367 389.497 565.365L298.533 462.848C289.82 453.028 293.21 437.608 305.228 432.399C312.892 429.077 321.843 431.067 327.399 437.33ZM438.974 210.882C419.76 206.609 402.025 222.287 403.954 241.842L405.022 252.671C406.251 265.141 415.38 275.429 427.633 278.154L528.784 300.65C534.757 301.978 540.991 301.385 546.593 298.957L562.742 291.957C588.441 280.817 584.741 243.3 557.343 237.207L438.974 210.882ZM377.71 120.744C380.802 115.486 382.145 109.38 381.545 103.302L374.42 31.0525C371.67 3.16898 334.806 -5.02947 320.623 19.0881L245.204 147.334C238.861 158.119 226.271 163.577 214.018 160.852L68.3281 128.451C40.9301 122.357 21.8466 154.807 40.479 175.806L139.557 287.468C147.89 296.858 149.237 310.519 142.894 321.305L67.4752 449.55C53.292 473.668 78.3618 501.922 104.06 490.782L170.649 461.918C176.251 459.49 180.934 455.35 184.026 450.092L236.389 361.052C242.732 350.267 241.384 336.606 233.052 327.215L190.174 278.892C171.542 257.893 190.625 225.443 218.024 231.537L281.072 245.559C293.325 248.284 305.915 242.826 312.258 232.041L377.71 120.744ZM304.219 430.092C290.634 435.981 286.801 453.412 296.651 464.512L387.615 567.028C401.66 582.857 427.724 571.559 425.651 550.541C425.199 545.959 423.307 541.633 420.245 538.182L329.281 435.666C323 428.587 312.882 426.337 304.219 430.092Z" fill="url(#paint15_linear_2_326)"/>
    <path fill-rule="evenodd" clip-rule="evenodd" d="M434.517 207.748L553.953 228.622C579.195 233.034 584.144 267.103 561.176 278.34L545.368 286.075C540.361 288.524 534.701 289.326 529.198 288.364L427.134 270.526C415.846 268.553 407.09 259.55 405.445 248.227L403.88 237.456C401.301 219.699 416.815 204.654 434.517 207.748ZM367.38 116.845L307.125 231.043C301.793 241.147 290.541 246.653 279.252 244.68L215.635 233.561C185.586 228.309 166.49 264.5 187.768 286.376L232.815 332.689C240.808 340.907 242.61 353.312 237.278 363.416L189.072 454.777C186.474 459.702 182.377 463.675 177.37 466.124L112.189 498.015C89.2214 509.253 65.1731 484.529 77.0949 461.934L146.526 330.347C152.873 318.318 150.728 303.55 141.212 293.767L37.1196 186.748C19.2464 168.373 35.287 137.972 60.5284 142.384L207.532 168.077C220.97 170.425 234.366 163.871 240.713 151.842L310.145 20.2542C322.067 -2.34 356.029 3.59568 359.707 28.9164L370.145 100.774C370.947 106.294 369.979 111.92 367.38 116.845ZM333.915 436.63L429.482 534.884C432.328 537.809 434.176 541.556 434.761 545.588C437.448 564.081 414.878 575.123 401.824 561.703L306.257 463.449C297.102 454.038 299.779 438.476 311.543 432.72C319.045 429.05 328.077 430.628 333.915 436.63ZM434.943 205.271C415.556 201.883 398.563 218.36 401.388 237.809L402.953 248.579C404.754 260.982 414.345 270.842 426.708 273.002L528.772 290.841C534.799 291.894 540.998 291.016 546.482 288.333L562.29 280.599C587.445 268.291 582.025 230.978 554.379 226.146L434.943 205.271ZM369.609 118.023C372.455 112.628 373.515 106.467 372.637 100.421L362.198 28.5636C358.17 0.83135 320.974 -5.6696 307.916 19.0765L238.485 150.664C232.646 161.731 220.321 167.761 207.958 165.6L60.9544 139.907C33.3092 135.076 15.7409 168.371 35.3163 188.497L139.409 295.515C148.164 304.516 150.137 318.102 144.298 329.169L74.8664 460.757C61.8093 485.503 88.1478 512.582 113.303 500.274L178.484 468.383C183.968 465.7 188.454 461.349 191.301 455.955L239.507 364.594C245.346 353.527 243.372 339.941 234.618 330.94L189.571 284.627C169.995 264.501 187.564 231.206 215.209 236.037L278.826 247.156C291.19 249.317 303.514 243.287 309.353 232.22L369.609 118.023ZM310.43 430.462C297.131 436.968 294.105 454.559 304.453 465.198L400.021 563.452C414.777 578.622 440.29 566.139 437.253 545.235C436.591 540.678 434.502 536.442 431.285 533.135L335.718 434.882C329.119 428.097 318.91 426.313 310.43 430.462Z" fill="url(#paint16_linear_2_326)"/>
    <path fill-rule="evenodd" clip-rule="evenodd" d="M430.355 202.351L550.606 217.741C576.019 220.993 582.526 254.805 560.101 267.084L544.667 275.534C539.779 278.211 534.162 279.271 528.622 278.562L425.862 265.41C414.497 263.956 405.338 255.362 403.175 244.124L401.118 233.434C397.727 215.811 412.533 200.07 430.355 202.351ZM359.127 114.602L304.185 231.454C299.324 241.794 288.337 247.809 276.972 246.355L212.921 238.157C182.667 234.285 165.255 271.318 187.511 292.2L234.63 336.41C242.99 344.255 245.359 356.566 240.498 366.906L196.543 460.39C194.173 465.43 190.264 469.586 185.376 472.263L121.737 507.108C99.3124 519.387 74.1583 495.785 85.0288 472.666L148.337 338.019C154.125 325.71 151.304 311.054 141.351 301.715L32.472 199.556C13.777 182.015 28.403 150.908 53.8165 154.16L201.822 173.103C215.352 174.834 228.431 167.673 234.219 155.364L297.527 20.7171C308.398 -2.40245 342.591 1.97378 347.427 27.1035L361.151 98.4188C362.205 103.897 361.497 109.562 359.127 114.602ZM340.378 435.631L440.34 529.423C443.316 532.216 445.334 535.875 446.104 539.876C449.636 558.229 427.6 570.295 413.946 557.484L313.984 463.692C304.409 454.708 306.369 439.038 317.855 432.749C325.179 428.738 334.272 429.902 340.378 435.631ZM430.667 199.857C411.147 197.359 394.931 214.599 398.646 233.901L400.703 244.59C403.071 256.899 413.103 266.311 425.55 267.904L528.31 281.056C534.378 281.832 540.53 280.671 545.884 277.74L561.317 269.289C585.878 255.841 578.751 218.809 550.918 215.247L430.667 199.857ZM361.407 115.677C364.002 110.157 364.778 103.952 363.624 97.9523L349.9 26.6369C344.603 -0.886123 307.153 -5.67905 295.248 19.6424L231.939 154.289C226.614 165.613 214.582 172.202 202.134 170.609L54.1284 151.666C26.2947 148.104 10.2756 182.174 30.7511 201.386L139.63 303.544C148.787 312.136 151.382 325.62 146.058 336.944L82.7489 471.591C70.8432 496.912 98.3929 522.762 122.953 509.314L186.592 474.469C191.946 471.537 196.228 466.985 198.823 461.465L242.778 367.98C248.102 356.656 245.507 343.172 236.35 334.581L189.232 290.37C168.756 271.159 184.775 237.089 212.609 240.651L276.66 248.849C289.108 250.442 301.14 243.853 306.465 232.529L361.407 115.677ZM316.638 430.543C303.655 437.652 301.439 455.366 312.264 465.522L412.225 559.314C427.66 573.795 452.569 560.156 448.577 539.41C447.706 534.887 445.425 530.751 442.061 527.594L342.099 433.802C335.197 427.325 324.918 426.01 316.638 430.543Z" fill="url(#paint17_linear_2_326)"/>
    <path fill-rule="evenodd" clip-rule="evenodd" d="M426.302 197.549L547.08 207.856C572.604 210.034 580.535 243.546 558.653 256.761L543.592 265.856C538.822 268.737 533.256 270.033 527.692 269.558L424.482 260.751C413.067 259.777 403.554 251.576 400.918 240.437L398.411 229.843C394.277 212.376 408.402 196.022 426.302 197.549ZM351.436 112.871L301.494 231.953C297.075 242.49 286.354 248.964 274.939 247.99L210.608 242.5C180.221 239.907 164.393 277.646 187.51 297.574L236.45 339.764C245.134 347.25 248.021 359.452 243.602 369.989L203.647 465.257C201.493 470.393 197.764 474.711 192.994 477.592L130.895 515.095C109.013 528.31 82.8864 505.788 92.7676 482.227L150.315 345.011C155.576 332.467 152.138 317.941 141.8 309.029L28.7122 211.539C9.29435 194.8 22.5895 163.099 48.1142 165.277L196.769 177.962C210.358 179.122 223.12 171.415 228.381 158.871L285.929 21.6549C295.81 -1.90581 330.153 1.0248 336.047 25.9316L352.773 96.6146C354.058 102.044 353.59 107.735 351.436 112.871ZM346.286 434.45L450.112 523.955C453.204 526.62 455.375 530.191 456.313 534.157C460.618 552.347 439.115 565.333 424.933 553.108L321.107 463.603C311.161 455.029 312.456 439.288 323.664 432.519C330.811 428.203 339.944 428.982 346.286 434.45ZM426.509 195.044C406.903 193.371 391.433 211.283 395.96 230.413L398.467 241.008C401.354 253.207 411.773 262.189 424.276 263.256L527.486 272.063C533.58 272.583 539.676 271.164 544.901 268.009L559.961 258.913C583.927 244.44 575.241 207.736 547.286 205.351L426.509 195.044ZM353.759 113.849C356.118 108.223 356.631 101.991 355.224 96.0441L338.497 25.3611C332.042 -1.91778 294.428 -5.12747 283.606 20.6771L226.058 157.893C221.218 169.433 209.477 176.524 196.975 175.457L48.3203 162.772C20.3647 160.387 5.80332 195.106 27.0704 213.44L140.159 310.929C149.669 319.129 152.832 332.493 147.992 344.033L90.4446 481.249C79.6224 507.054 108.237 531.721 132.203 517.248L194.302 479.744C199.527 476.589 203.611 471.86 205.97 466.235L245.925 370.966C250.765 359.426 247.603 346.062 238.092 337.863L189.152 295.673C167.885 277.34 182.446 242.62 210.401 245.005L274.733 250.495C287.235 251.562 298.977 244.471 303.817 232.931L353.759 113.849ZM322.356 430.367C309.687 438.018 308.223 455.812 319.465 465.504L423.291 555.008C439.322 568.828 463.629 554.149 458.763 533.586C457.702 529.103 455.249 525.067 451.754 522.054L347.928 432.549C340.759 426.369 330.435 425.488 322.356 430.367Z" fill="url(#paint18_linear_2_326)"/>
    <path fill-rule="evenodd" clip-rule="evenodd" d="M421.675 192.529L542.78 197.289C568.374 198.295 577.836 231.413 556.588 245.619L541.964 255.397C537.332 258.494 531.832 260.044 526.253 259.824L422.763 255.757C411.317 255.307 401.438 247.55 398.293 236.542L395.302 226.072C390.37 208.81 403.726 191.824 421.675 192.529ZM343.006 111.359L298.599 232.624C294.67 243.353 284.26 250.313 272.814 249.864L208.307 247.328C177.838 246.131 163.765 284.561 187.77 303.411L238.591 343.319C247.608 350.4 251.054 362.459 247.124 373.189L211.598 470.203C209.683 475.434 206.156 479.919 201.524 483.016L141.225 523.332C119.977 537.538 92.8462 516.234 101.632 492.241L152.801 352.511C157.479 339.737 153.377 325.381 142.642 316.951L25.2082 224.735C5.0442 208.901 16.8657 176.619 42.4597 177.625L191.518 183.483C205.144 184.019 217.537 175.733 222.214 162.959L273.383 23.2288C282.169 -0.763629 316.606 0.589789 323.638 25.2039L343.594 95.0563C345.127 100.422 344.921 106.129 343.006 111.359ZM352.648 432.884L460.464 517.548C463.675 520.069 466.007 523.538 467.126 527.457C472.262 545.434 451.382 559.394 436.656 547.83L328.84 463.166C318.512 455.055 319.081 439.269 329.964 431.993C336.905 427.353 346.062 427.713 352.648 432.884ZM421.766 190.017C402.107 189.244 387.48 207.848 392.881 226.754L395.872 237.224C399.316 249.28 410.136 257.777 422.672 258.269L526.162 262.337C532.273 262.577 538.297 260.879 543.37 257.487L557.994 247.71C581.265 232.15 570.903 195.878 542.871 194.777L421.766 190.017ZM345.371 112.23C347.468 106.501 347.694 100.251 346.015 94.374L326.059 24.5217C318.357 -2.43671 280.641 -3.9191 271.018 22.3584L219.849 162.089C215.546 173.841 204.145 181.464 191.608 180.971L42.5504 175.113C14.5188 174.011 1.57143 209.367 23.6558 226.709L141.09 318.926C150.966 326.681 154.739 339.889 150.436 351.64L99.2671 491.371C89.6444 517.648 119.359 540.982 142.63 525.423L202.93 485.106C208.003 481.714 211.865 476.802 213.963 471.074L249.489 374.059C253.793 362.308 250.02 349.1 240.143 341.345L189.322 301.437C167.238 284.095 180.185 248.739 208.217 249.841L272.723 252.376C285.259 252.869 296.661 245.246 300.964 233.494L345.371 112.23ZM328.559 429.902C316.257 438.128 315.613 455.972 327.287 465.14L435.103 549.804C451.75 562.876 475.353 547.096 469.547 526.775C468.282 522.345 465.646 518.424 462.017 515.574L354.201 430.91C346.756 425.064 336.404 424.657 328.559 429.902Z" fill="url(#paint19_linear_2_326)"/>
    <path fill-rule="evenodd" clip-rule="evenodd" d="M416.827 187.735L538.005 186.949C563.615 186.782 574.585 219.438 554.014 234.604L539.857 245.042C535.372 248.348 529.95 250.148 524.368 250.185L420.815 250.857C409.362 250.931 399.14 243.633 395.493 232.779L392.025 222.455C386.307 205.434 398.867 187.852 416.827 187.735ZM334.527 110.239L295.739 233.426C292.307 244.326 282.229 251.756 270.777 251.831L206.231 252.25C175.744 252.448 163.451 291.488 188.293 309.222L240.884 346.769C250.216 353.431 254.21 365.321 250.778 376.221L219.747 474.774C218.074 480.087 214.758 484.73 210.273 488.036L151.896 531.076C131.326 546.242 103.25 526.198 110.925 501.825L155.619 359.878C159.705 346.902 154.95 332.746 143.84 324.815L22.3154 238.056C1.44904 223.159 11.7747 190.365 37.3842 190.199L186.532 189.23C200.166 189.142 212.164 180.296 216.249 167.32L260.944 25.3734C268.618 1.00048 303.075 0.776735 311.229 25.047L334.366 93.9234C336.144 99.2142 336.2 104.926 334.527 110.239ZM358.915 431.034L470.486 510.688C473.809 513.06 476.297 516.418 477.595 520.282C483.55 538.008 463.336 552.911 448.096 542.031L336.524 462.377C325.837 454.747 325.681 438.949 336.217 431.181C342.936 426.228 352.099 426.168 358.915 431.034ZM416.803 185.221C397.132 185.349 383.376 204.606 389.638 223.248L393.106 233.571C397.1 245.459 408.296 253.452 420.84 253.371L524.392 252.699C530.507 252.659 536.445 250.687 541.357 247.066L555.514 236.628C578.044 220.018 566.029 184.252 537.981 184.434L416.803 185.221ZM336.929 111C338.762 105.181 338.7 98.9256 336.753 93.1309L313.615 24.2545C304.686 -2.32718 266.947 -2.08215 258.542 24.6121L213.847 166.559C210.088 178.497 199.051 186.635 186.507 186.716L37.3594 187.684C9.3111 187.867 -1.9981 223.783 20.8556 240.099L142.381 326.859C152.601 334.156 156.976 347.178 153.217 359.116L108.523 501.063C100.117 527.758 130.867 549.71 153.396 533.1L211.773 490.06C216.685 486.439 220.317 481.355 222.149 475.535L253.18 376.982C256.939 365.044 252.564 352.022 242.344 344.725L189.752 307.179C166.899 290.863 178.208 254.946 206.256 254.764L270.801 254.345C283.345 254.263 294.383 246.126 298.142 234.188L336.929 111ZM334.717 429.157C322.807 437.938 322.983 455.796 335.064 464.421L446.636 544.075C463.863 556.374 486.713 539.527 479.982 519.49C478.515 515.122 475.702 511.325 471.946 508.644L360.374 428.99C352.67 423.49 342.312 423.557 334.717 429.157Z" fill="url(#paint20_linear_2_326)"/>
    <path fill-rule="evenodd" clip-rule="evenodd" d="M411.81 183.201L532.809 176.915C558.38 175.587 570.824 207.715 550.968 223.802L537.303 234.873C532.974 238.38 527.64 240.424 522.066 240.714L418.667 246.086C407.231 246.68 396.688 239.852 392.552 229.173L388.618 219.016C382.132 202.27 393.877 184.133 411.81 183.201ZM326.08 109.508L292.946 234.348C290.014 245.394 280.286 253.275 268.85 253.869L204.401 257.217C173.958 258.799 163.458 298.363 189.076 314.954L243.314 350.08C252.938 356.313 257.469 368.011 254.538 379.057L228.029 478.932C226.6 484.316 223.499 489.105 219.171 492.612L162.822 538.263C142.967 554.35 114.012 535.598 120.568 510.898L158.748 367.048C162.238 353.898 156.844 339.971 145.387 332.551L20.0566 251.384C-1.4633 237.447 7.35741 204.213 32.9289 202.885L181.856 195.148C195.47 194.441 207.051 185.058 210.541 171.908L248.721 28.0579C255.276 3.35815 289.683 1.57069 298.931 25.4494L325.177 93.2148C327.193 98.4203 327.509 104.124 326.08 109.508ZM365.041 428.914L480.107 503.433C483.533 505.652 486.171 508.895 487.644 512.697C494.398 530.136 474.887 545.944 459.17 535.765L344.104 461.246C333.082 454.107 332.207 438.33 342.377 430.091C348.863 424.837 358.012 424.361 365.041 428.914ZM411.671 180.69C392.03 181.711 379.166 201.575 386.27 219.916L390.204 230.073C394.734 241.769 406.281 249.247 418.806 248.597L522.205 243.225C528.31 242.908 534.152 240.668 538.893 236.827L552.558 225.756C574.305 208.138 560.677 172.949 532.67 174.404L411.671 180.69ZM328.514 110.16C330.079 104.263 329.733 98.016 327.525 92.3147L301.279 24.5493C291.15 -1.60362 253.467 0.354032 246.287 27.4063L208.107 171.257C204.896 183.355 194.242 191.986 181.717 192.637L32.7898 200.374C4.78292 201.829 -4.87788 238.228 18.6914 253.492L144.022 334.659C154.562 341.485 159.525 354.298 156.314 366.396L118.134 510.246C110.954 537.299 142.666 557.836 164.413 540.218L220.761 494.567C225.502 490.726 228.898 485.481 230.463 479.584L256.972 379.709C260.183 367.611 255.22 354.798 244.68 347.972L190.442 312.846C166.872 297.582 176.533 261.183 204.54 259.728L268.989 256.38C281.515 255.729 292.169 247.098 295.38 235L328.514 110.16ZM340.787 428.136C329.291 437.45 330.28 455.285 342.739 463.354L457.805 537.873C475.571 549.379 497.627 531.51 489.992 511.796C488.327 507.499 485.345 503.833 481.472 501.325L366.406 426.805C358.461 421.66 348.118 422.197 340.787 428.136Z" fill="url(#paint21_linear_2_326)"/>
    <path fill-rule="evenodd" clip-rule="evenodd" d="M406.539 178.859L527.102 167.031C552.582 164.531 566.488 196.06 547.395 213.042L534.255 224.73C530.093 228.432 524.86 230.72 519.306 231.265L416.278 241.372C404.884 242.49 394.039 236.152 389.417 225.672L385.021 215.704C377.773 199.271 388.67 180.612 406.539 178.859ZM317.524 109.163L290.169 235.409C287.749 246.579 278.395 254.899 267.001 256.017L202.783 262.317C172.45 265.293 163.781 305.302 190.132 320.704L245.919 353.312C255.818 359.098 260.882 370.578 258.461 381.749L236.577 482.748C235.397 488.194 232.52 493.12 228.358 496.822L174.177 545.016C155.085 561.998 125.303 544.591 130.715 519.613L162.235 374.142C165.116 360.843 159.088 347.176 147.304 340.288L18.3931 264.94C-3.74155 252.003 3.54038 218.395 29.0199 215.895L177.411 201.337C190.976 200.006 202.112 190.102 204.993 176.803L236.513 31.3323C241.925 6.3542 276.208 2.9908 286.543 26.4241L315.873 92.9251C318.126 98.0335 318.704 103.718 317.524 109.163ZM371.124 426.494L489.477 495.671C493.001 497.73 495.785 500.849 497.431 504.58C504.979 521.694 486.218 538.382 470.052 528.933L351.699 459.756C340.362 453.13 338.763 437.407 348.542 428.709C354.777 423.162 363.894 422.268 371.124 426.494ZM406.284 176.356C386.714 178.276 374.779 198.713 382.718 216.711L387.114 226.679C392.176 238.157 404.053 245.099 416.533 243.874L519.56 233.767C525.644 233.17 531.375 230.665 535.934 226.61L549.074 214.922C569.984 196.323 554.754 161.791 526.848 164.528L406.284 176.356ZM319.985 109.702C321.277 103.738 320.644 97.513 318.176 91.9182L288.846 25.4171C277.527 -0.247781 239.98 3.4358 234.052 30.7928L202.532 176.264C199.881 188.498 189.637 197.611 177.157 198.835L28.7655 213.393C0.859406 216.13 -7.11617 252.939 17.1265 267.109L146.038 342.457C156.879 348.794 162.425 361.368 159.774 373.602L128.254 519.073C122.326 546.43 154.945 565.495 175.855 546.896L230.036 498.702C234.595 494.648 237.746 489.252 239.038 483.288L260.922 382.288C263.573 370.054 258.028 357.48 247.186 351.143L191.398 318.535C167.156 304.366 175.131 267.557 203.037 264.819L267.255 258.519C279.735 257.295 289.98 248.183 292.63 235.948L319.985 109.702ZM346.863 426.829C335.809 436.662 337.617 454.435 350.432 461.925L468.785 531.102C487.059 541.783 508.267 522.919 499.734 503.573C497.874 499.356 494.727 495.83 490.743 493.502L372.39 424.325C364.218 419.548 353.912 420.559 346.863 426.829Z" fill="url(#paint22_linear_2_326)"/>
    <path fill-rule="evenodd" clip-rule="evenodd" d="M401.084 174.77L520.96 157.435C546.294 153.772 561.63 184.636 543.34 202.477L530.752 214.756C526.765 218.645 521.643 221.17 516.12 221.968L413.681 236.782C402.351 238.42 391.229 232.583 386.132 222.325L381.284 212.567C373.29 196.48 383.317 177.339 401.084 174.77ZM308.977 109.21L287.45 236.595C285.545 247.866 276.585 256.606 265.255 258.245L201.404 267.478C171.244 271.839 164.422 312.209 191.447 326.392L248.664 356.417C258.817 361.745 264.401 372.983 262.496 384.254L245.274 486.165C244.345 491.659 241.698 496.713 237.711 500.602L185.807 551.232C167.517 569.073 136.972 553.044 141.231 527.84L166.037 381.058C168.304 367.639 161.656 354.26 149.57 347.918L17.3561 278.537C-5.34562 266.624 0.385076 232.713 25.7193 229.049L173.264 207.714C186.752 205.763 197.419 195.358 199.687 181.94L224.492 35.1569C228.751 9.95354 262.838 5.02438 274.236 27.9636L306.583 93.0627C309.068 98.0634 309.906 103.716 308.977 109.21ZM377.077 423.803L498.462 487.502C502.077 489.398 505.001 492.387 506.816 496.039C515.14 512.793 497.167 530.324 480.587 521.624L359.202 457.925C347.574 451.823 345.256 436.188 354.623 427.05C360.597 421.223 369.662 419.912 377.077 423.803ZM400.715 172.281C381.256 175.095 370.274 196.059 379.029 213.679L383.877 223.436C389.46 234.672 401.641 241.064 414.05 239.27L516.489 224.457C522.538 223.582 528.148 220.817 532.515 216.557L545.103 204.278C565.134 184.738 548.338 150.934 520.591 154.947L400.715 172.281ZM311.46 109.637C312.477 103.619 311.559 97.4282 308.838 91.9512L276.491 26.8522C264.007 1.72825 226.674 7.12685 222.009 34.7305L197.204 181.513C195.117 193.858 185.304 203.431 172.895 205.225L25.3503 226.561C-2.39654 230.573 -8.67325 267.714 16.1906 280.762L148.405 350.143C159.524 355.978 165.64 368.286 163.554 380.631L138.748 527.414C134.083 555.018 167.538 572.573 187.569 553.033L239.473 502.403C243.84 498.144 246.74 492.609 247.757 486.591L264.979 384.681C267.065 372.336 260.949 360.027 249.83 354.192L192.613 324.167C167.749 311.119 174.026 273.979 201.773 269.966L265.624 260.733C278.033 258.939 287.847 249.366 289.933 237.021L311.46 109.637ZM352.861 425.249C342.272 435.578 344.892 453.252 358.036 460.15L479.422 523.848C498.164 533.684 518.48 513.866 509.07 494.928C507.019 490.799 503.714 487.421 499.628 485.277L378.242 421.578C369.861 417.18 359.614 418.662 352.861 425.249Z" fill="url(#paint23_linear_2_326)"/>
    <defs>
      <linearGradient id="paint0_linear_2_326" x1="546.762" y1="457.294" x2="45.3489" y2="127.771" gradientUnits="userSpaceOnUse">
  
        <stop stop-color="#f3f3f3"/>
        <stop offset="1" stop-color="#0400DD" stop-opacity="0">
          <animate attributeName="stop-color" values="#0400DD; #f3f3f3; #0400DD" dur="7s" repeatCount="indefinite" begin="3s"/>
        </stop>
      </linearGradient>
      <linearGradient id="paint1_linear_2_326" x1="546.762" y1="457.294" x2="45.3489" y2="127.771" gradientUnits="userSpaceOnUse">
        <stop stop-color="#f3f3f3"/>
        <stop offset="1" stop-color="#0400DD" stop-opacity="0">
          <animate attributeName="stop-color" values="#0400DD; #f3f3f3; #0400DD" dur="7s" repeatCount="indefinite" />
        </stop>
      </linearGradient>
      <linearGradient id="paint2_linear_2_326" x1="546.762" y1="457.294" x2="45.3489" y2="127.771" gradientUnits="userSpaceOnUse">
        <stop stop-color="#f3f3f3"/>
        <stop offset="1" stop-color="#0400DD" stop-opacity="0">
          <animate attributeName="stop-color" values="#0400DD; #f3f3f3; #0400DD" dur="7s" repeatCount="indefinite" begin="3s" />
        </stop>
      </linearGradient>
      <linearGradient id="paint3_linear_2_326" x1="546.762" y1="457.294" x2="45.3489" y2="127.771" gradientUnits="userSpaceOnUse">
        <stop stop-color="#f3f3f3"/>
        <stop offset="1" stop-color="#0400DD" stop-opacity="0">
          <animate attributeName="stop-color" values="#0400DD; #f3f3f3; #0400DD" dur="7s" repeatCount="indefinite" />
        </stop>
      </linearGradient>
      <linearGradient id="paint4_linear_2_326" x1="546.762" y1="457.294" x2="45.3489" y2="127.771" gradientUnits="userSpaceOnUse">
        <stop stop-color="#f3f3f3"/>
        <stop offset="1" stop-color="#0400DD" stop-opacity="0">
          <animate attributeName="stop-color" values="#0400DD; #f3f3f3; #0400DD" dur="7s" repeatCount="indefinite" begin="3s" />
        </stop>
      </linearGradient>
      <linearGradient id="paint5_linear_2_326" x1="546.762" y1="457.294" x2="45.3489" y2="127.771" gradientUnits="userSpaceOnUse">
        <stop stop-color="#f3f3f3"/>
        <stop offset="1" stop-color="#0400DD" stop-opacity="0">
          <animate attributeName="stop-color" values="#0400DD; #f3f3f3; #0400DD" dur="7s" repeatCount="indefinite" />
        </stop>
      </linearGradient>
      <linearGradient id="paint6_linear_2_326" x1="546.762" y1="457.294" x2="45.3489" y2="127.771" gradientUnits="userSpaceOnUse">
        <stop stop-color="#f3f3f3"/>
        <stop offset="1" stop-color="#0400DD" stop-opacity="0">
          <animate attributeName="stop-color" values="#0400DD; #f3f3f3; #0400DD" dur="7s" repeatCount="indefinite" begin="3s" />
        </stop>
      </linearGradient>
      <linearGradient id="paint7_linear_2_326" x1="546.762" y1="457.294" x2="45.3489" y2="127.771" gradientUnits="userSpaceOnUse">
        <stop stop-color="#f3f3f3"/>
        <stop offset="1" stop-color="#0400DD" stop-opacity="0">
          <animate attributeName="stop-color" values="#0400DD; #f3f3f3; #0400DD" dur="7s" repeatCount="indefinite" />
        </stop>
      </linearGradient>
      <linearGradient id="paint8_linear_2_326" x1="546.762" y1="457.294" x2="45.3489" y2="127.771" gradientUnits="userSpaceOnUse">
        <stop stop-color="#f3f3f3"/>
        <stop offset="1" stop-color="#0400DD" stop-opacity="0">
          <animate attributeName="stop-color" values="#0400DD; #f3f3f3; #0400DD" dur="7s" repeatCount="indefinite" begin="3s" />
        </stop>
      </linearGradient>
      <linearGradient id="paint9_linear_2_326" x1="546.762" y1="457.294" x2="45.3489" y2="127.771" gradientUnits="userSpaceOnUse">
        <stop stop-color="#f3f3f3"/>
        <stop offset="1" stop-color="#0400DD" stop-opacity="0">
          <animate attributeName="stop-color" values="#0400DD; #f3f3f3; #0400DD" dur="7s" repeatCount="indefinite" />
        </stop>
      </linearGradient>
      <linearGradient id="paint10_linear_2_326" x1="546.762" y1="457.294" x2="45.3489" y2="127.771" gradientUnits="userSpaceOnUse">
        <stop stop-color="#f3f3f3"/>
        <stop offset="1" stop-color="#0400DD" stop-opacity="0">
          <animate attributeName="stop-color" values="#0400DD; #f3f3f3; #0400DD" dur="7s" repeatCount="indefinite" begin="3s" />
        </stop>
      </linearGradient>
      <linearGradient id="paint11_linear_2_326" x1="546.762" y1="457.294" x2="45.3489" y2="127.771" gradientUnits="userSpaceOnUse">
        <stop stop-color="#f3f3f3"/>
        <stop offset="1" stop-color="#0400DD" stop-opacity="0">
          <animate attributeName="stop-color" values="#0400DD; #f3f3f3; #0400DD" dur="7s" repeatCount="indefinite" />
        </stop>
      </linearGradient>
      <linearGradient id="paint12_linear_2_326" x1="546.762" y1="457.294" x2="45.3489" y2="127.771" gradientUnits="userSpaceOnUse">
        <stop stop-color="#f3f3f3"/>
        <stop offset="1" stop-color="#0400DD" stop-opacity="0">
          <animate attributeName="stop-color" values="#0400DD; #f3f3f3; #0400DD" dur="7s" repeatCount="indefinite" begin="3s" />
        </stop>
      </linearGradient>
      <linearGradient id="paint13_linear_2_326" x1="546.762" y1="457.294" x2="45.3489" y2="127.771" gradientUnits="userSpaceOnUse">
        <stop stop-color="#f3f3f3"/>
        <stop offset="1" stop-color="#0400DD" stop-opacity="0">
          <animate attributeName="stop-color" values="#0400DD; #f3f3f3; #0400DD" dur="7s" repeatCount="indefinite" />
        </stop>
      </linearGradient>
      <linearGradient id="paint14_linear_2_326" x1="546.762" y1="457.294" x2="45.3489" y2="127.771" gradientUnits="userSpaceOnUse">
        <stop stop-color="#f3f3f3"/>
        <stop offset="1" stop-color="#0400DD" stop-opacity="0">
          <animate attributeName="stop-color" values="#0400DD; #f3f3f3; #0400DD" dur="7s" repeatCount="indefinite" begin="3s" />
        </stop>
      </linearGradient>
      <linearGradient id="paint15_linear_2_326" x1="546.762" y1="457.294" x2="45.3489" y2="127.771" gradientUnits="userSpaceOnUse">
        <stop stop-color="#f3f3f3"/>
        <stop offset="1" stop-color="#0400DD" stop-opacity="0">
          <animate attributeName="stop-color" values="#0400DD; #f3f3f3; #0400DD" dur="7s" repeatCount="indefinite" />
        </stop>
      </linearGradient>
      <linearGradient id="paint16_linear_2_326" x1="546.762" y1="457.294" x2="45.3489" y2="127.771" gradientUnits="userSpaceOnUse">
        <stop stop-color="#f3f3f3"/>
        <stop offset="1" stop-color="#0400DD" stop-opacity="0">
          <animate attributeName="stop-color" values="#0400DD; #f3f3f3; #0400DD" dur="7s" repeatCount="indefinite" begin="3s" />
        </stop>
      </linearGradient>
      <linearGradient id="paint17_linear_2_326" x1="546.762" y1="457.294" x2="45.3489" y2="127.771" gradientUnits="userSpaceOnUse">
        <stop stop-color="#f3f3f3"/>
        <stop offset="1" stop-color="#0400DD" stop-opacity="0">
          <animate attributeName="stop-color" values="#0400DD; #f3f3f3; #0400DD" dur="7s" repeatCount="indefinite" />
        </stop>
      </linearGradient>
      <linearGradient id="paint18_linear_2_326" x1="546.762" y1="457.294" x2="45.3489" y2="127.771" gradientUnits="userSpaceOnUse">
        <stop stop-color="#f3f3f3"/>
        <stop offset="1" stop-color="#0400DD" stop-opacity="0">
          <animate attributeName="stop-color" values="#0400DD; #f3f3f3; #0400DD" dur="7s" repeatCount="indefinite" begin="3s" />
        </stop>
      </linearGradient>
      <linearGradient id="paint19_linear_2_326" x1="546.762" y1="457.294" x2="45.3489" y2="127.771" gradientUnits="userSpaceOnUse">
        <stop stop-color="#f3f3f3"/>
        <stop offset="1" stop-color="#0400DD" stop-opacity="0">
          <animate attributeName="stop-color" values="#0400DD; #f3f3f3; #0400DD" dur="7s" repeatCount="indefinite" />
        </stop>
      </linearGradient>
      <linearGradient id="paint20_linear_2_326" x1="546.762" y1="457.294" x2="45.3489" y2="127.771" gradientUnits="userSpaceOnUse">
        <stop stop-color="#f3f3f3"/>
        <stop offset="1" stop-color="#0400DD" stop-opacity="0">
          <animate attributeName="stop-color" values="#0400DD; #f3f3f3; #0400DD" dur="7s" repeatCount="indefinite" begin="3s" />
        </stop>
      </linearGradient>
      <linearGradient id="paint21_linear_2_326" x1="546.762" y1="457.294" x2="45.3489" y2="127.771" gradientUnits="userSpaceOnUse">
        <stop stop-color="#f3f3f3"/>
        <stop offset="1" stop-color="#0400DD" stop-opacity="0">
          <animate attributeName="stop-color" values="#0400DD; #f3f3f3; #0400DD" dur="7s" repeatCount="indefinite" />
        </stop>
      </linearGradient>
      <linearGradient id="paint22_linear_2_326" x1="546.762" y1="457.294" x2="45.3489" y2="127.771" gradientUnits="userSpaceOnUse">
        <stop stop-color="#f3f3f3"/>
        <stop offset="1" stop-color="#0400DD" stop-opacity="0">
          <animate attributeName="stop-color" values="#0400DD; #f3f3f3; #0400DD" dur="7s" repeatCount="indefinite" begin="3s" />
        </stop>
      </linearGradient>
      <linearGradient id="paint23_linear_2_326" x1="554.056" y1="177.409" x2="76.4437" y2="414.727" gradientUnits="userSpaceOnUse">
        <stop stop-color="#f3f3f3"/>
        <stop offset="1" stop-color="#0400DD" stop-opacity="0">
          <animate attributeName="stop-color" values="#0400DD; #f3f3f3; #0400DD" dur="7s" repeatCount="indefinite" />
        </stop>
      </linearGradient>
      
    </defs>
    
  </svg>